<?xml version="1.0" encoding="UTF-8" standalone="no"?>
<!-- Created with Inkscape (http://www.inkscape.org/) -->

<svg
   width="31.425781mm"
   height="8.3925791mm"
   viewBox="0 0 31.425781 8.392579"
   version="1.1"
   id="svg1"
   xml:space="preserve"
   inkscape:version="1.3.2 (091e20e, 2023-11-25, custom)"
   sodipodi:docname="en-unselect.svg"
   xmlns:inkscape="http://www.inkscape.org/namespaces/inkscape"
   xmlns:sodipodi="http://sodipodi.sourceforge.net/DTD/sodipodi-0.dtd"
   xmlns="http://www.w3.org/2000/svg"
   xmlns:svg="http://www.w3.org/2000/svg"><sodipodi:namedview
     id="namedview1"
     pagecolor="#ffffff"
     bordercolor="#000000"
     borderopacity="0.25"
     inkscape:showpageshadow="2"
     inkscape:pageopacity="0.0"
     inkscape:pagecheckerboard="0"
     inkscape:deskcolor="#d1d1d1"
     inkscape:document-units="mm"
     inkscape:zoom="1.2750529"
     inkscape:cx="310.57534"
     inkscape:cy="38.037636"
     inkscape:window-width="1366"
     inkscape:window-height="745"
     inkscape:window-x="-8"
     inkscape:window-y="-8"
     inkscape:window-maximized="1"
     inkscape:current-layer="layer1"
     showgrid="false"
     showguides="true"><inkscape:grid
       id="grid36"
       units="px"
       originx="-7.9902337"
       originy="-20.585937"
       spacingx="0.26458333"
       spacingy="0.26458334"
       empcolor="#0099e5"
       empopacity="0.30196078"
       color="#0099e5"
       opacity="0.14901961"
       empspacing="5"
       dotted="false"
       gridanglex="30"
       gridanglez="30"
       visible="false" /></sodipodi:namedview><defs
     id="defs1"><rect
       x="233.34715"
       y="662.14111"
       width="57.222073"
       height="60.194649"
       id="rect94" /><rect
       x="-771.8429"
       y="69.235077"
       width="638.50122"
       height="615.42291"
       id="rect4" /><rect
       x="-771.8429"
       y="69.235077"
       width="1042.3988"
       height="216.57401"
       id="rect5" /><rect
       x="-771.8429"
       y="69.235077"
       width="1042.3988"
       height="216.57401"
       id="rect6" /><rect
       x="-771.8429"
       y="69.235077"
       width="1367.2717"
       height="162.42851"
       id="rect7" /><rect
       x="-771.8429"
       y="69.235077"
       width="1367.2717"
       height="162.42851"
       id="rect8" /><rect
       x="-771.8429"
       y="69.235077"
       width="1367.2717"
       height="162.42851"
       id="rect9" /><rect
       x="-771.8429"
       y="69.235077"
       width="1367.2717"
       height="162.42851"
       id="rect10" /><rect
       x="-771.8429"
       y="69.235077"
       width="1367.2717"
       height="162.42851"
       id="rect11" /><rect
       x="-771.8429"
       y="69.235077"
       width="1367.2717"
       height="162.42851"
       id="rect12" /><rect
       x="-771.8429"
       y="69.235077"
       width="1367.2717"
       height="162.42851"
       id="rect13" /><rect
       x="-771.8429"
       y="69.235077"
       width="1367.2717"
       height="162.42851"
       id="rect14" /><rect
       x="-771.8429"
       y="69.235077"
       width="1367.2717"
       height="162.42851"
       id="rect15" /><rect
       x="-771.8429"
       y="69.235077"
       width="1367.2717"
       height="162.42851"
       id="rect16" /><rect
       x="-771.8429"
       y="69.235077"
       width="1367.2717"
       height="162.42851"
       id="rect17" /><rect
       x="-771.8429"
       y="69.235077"
       width="1367.2717"
       height="162.42851"
       id="rect18" /><rect
       x="-771.8429"
       y="69.235077"
       width="1367.2717"
       height="162.42851"
       id="rect19" /><rect
       x="-771.8429"
       y="69.235077"
       width="1367.2717"
       height="162.42851"
       id="rect20" /><rect
       x="-771.8429"
       y="69.235077"
       width="1042.3988"
       height="216.57401"
       id="rect21" /><rect
       x="-771.8429"
       y="69.235077"
       width="1367.2717"
       height="162.42851"
       id="rect25" /><rect
       x="-771.8429"
       y="69.235077"
       width="1367.2717"
       height="162.42851"
       id="rect26" /><rect
       x="-771.8429"
       y="69.235077"
       width="1367.2717"
       height="162.42851"
       id="rect27" /><rect
       x="-771.8429"
       y="69.235077"
       width="1367.2717"
       height="162.42851"
       id="rect28" /><rect
       x="-771.8429"
       y="69.235077"
       width="1367.2717"
       height="162.42851"
       id="rect29" /><rect
       x="-771.8429"
       y="69.235077"
       width="947.72205"
       height="349.51065"
       id="rect38" /><rect
       x="-771.8429"
       y="69.235077"
       width="1367.2717"
       height="162.42851"
       id="rect76" /><rect
       x="-771.8429"
       y="69.235077"
       width="1367.2717"
       height="162.42851"
       id="rect78" /><rect
       x="-771.8429"
       y="69.235077"
       width="1367.2717"
       height="162.42851"
       id="rect80" /><rect
       x="-771.8429"
       y="69.235077"
       width="1367.2717"
       height="162.42851"
       id="rect82" /><rect
       x="-771.8429"
       y="69.235077"
       width="1367.2717"
       height="162.42851"
       id="rect31" /><rect
       x="-771.8429"
       y="69.235077"
       width="1367.2717"
       height="162.42851"
       id="rect32" /><rect
       x="-771.8429"
       y="69.235077"
       width="1367.2717"
       height="162.42851"
       id="rect33" /><rect
       x="-771.8429"
       y="69.235077"
       width="1367.2717"
       height="162.42851"
       id="rect34" /><rect
       x="-771.8429"
       y="69.235077"
       width="1367.2717"
       height="162.42851"
       id="rect85" /><rect
       x="-771.8429"
       y="69.235077"
       width="1367.2717"
       height="162.42851"
       id="rect87" /><rect
       x="-771.8429"
       y="69.235077"
       width="1367.2717"
       height="162.42851"
       id="rect89" /><rect
       x="-771.8429"
       y="69.235077"
       width="1367.2717"
       height="162.42851"
       id="rect92" /><rect
       x="-771.8429"
       y="69.235077"
       width="1367.2717"
       height="162.42851"
       id="rect3" /><rect
       x="-771.8429"
       y="69.235077"
       width="1367.2717"
       height="162.42851"
       id="rect23" /></defs><g
     inkscape:label="Layer 1"
     inkscape:groupmode="layer"
     id="layer1"
     transform="translate(-7.9902344,-20.585937)"><text
       xml:space="preserve"
       transform="scale(0.26458333)"
       id="text93"
       style="font-style:normal;font-variant:normal;font-weight:normal;font-stretch:normal;font-size:21.3333px;line-height:1;font-family:Geologica;-inkscape-font-specification:Geologica;text-align:justify;letter-spacing:1px;word-spacing:0px;white-space:pre;shape-inside:url(#rect94);fill:none;fill-opacity:1;stroke:#ffffff;stroke-width:6.04724;stroke-dasharray:none;paint-order:fill markers stroke" /><path
       style="color:#000000;fill:#ffffff;-inkscape-stroke:none;paint-order:fill markers stroke"
       d="m -35.220703,20.585937 c -2.321016,0 -4.195313,1.874298 -4.195313,4.195313 0,2.321015 1.874297,4.197266 4.195313,4.197266 h 23.035156 c 2.3210155,0 4.1953126,-1.876251 4.1953126,-4.197266 0,-2.321015 -1.8742971,-4.195313 -4.1953126,-4.195313 z m 0,0.400391 h 23.035156 c 2.106335,0 3.7968751,1.688587 3.7968751,3.794922 0,2.106335 -1.6905401,3.796875 -3.7968751,3.796875 h -23.035156 c -2.106335,0 -3.794922,-1.69054 -3.794922,-3.796875 0,-2.106335 1.688587,-3.794922 3.794922,-3.794922 z"
       id="rect2"
       transform="scale(-1,1)" /><path
       d="M -142.33515,89.414768 V 71.304159 h 11.70722 v 2.561358 h -8.80952 v 4.889864 h 7.60646 v 2.41906 h -7.60646 v 5.653097 h 8.88714 v 2.58723 z m 19.37081,0 V 76.60798 h 2.84595 v 1.629955 q 0.80204,-1.0737 1.86281,-1.539402 1.06076,-0.478637 2.19914,-0.478637 1.75932,0 2.91064,0.698552 1.15131,0.698552 1.70757,1.798125 0.56919,1.099572 0.56919,2.263826 v 8.434369 h -2.84595 v -7.554711 q 0,-1.371232 -0.82792,-2.199145 -0.81498,-0.827914 -2.27676,-0.827914 -0.95728,0 -1.70757,0.426893 -0.73736,0.426893 -1.16426,1.190126 -0.42689,0.750296 -0.42689,1.759316 v 7.205435 z m 24.868675,5.821268 q -1.435913,0 -2.587235,-0.258723 -1.15131,-0.245787 -1.96629,-0.724425 -0.80204,-0.478637 -1.22893,-1.151317 -0.4269,-0.67268 -0.4269,-1.500593 0,-0.659744 0.34928,-1.241871 0.36221,-0.582126 1.06076,-0.996083 0.71149,-0.426893 1.73345,-0.633872 -0.76324,-0.388084 -1.13838,-0.879658 -0.36222,-0.491573 -0.36222,-1.125445 0,-0.543318 0.31047,-1.021956 0.32341,-0.491573 0.90553,-0.866722 0.59506,-0.388084 1.39711,-0.633871 0.802037,-0.245787 1.772249,-0.284595 l 0.620935,1.24187 q -0.802041,-0.01294 -1.371232,0.129362 -0.556254,0.129361 -0.866722,0.375148 -0.29753,0.232851 -0.29753,0.569191 0,0.439829 0.504508,0.646807 0.50451,0.194042 1.422977,0.271659 l 2.199145,0.16817 q 1.617019,0.129362 2.7554,0.530382 1.151317,0.401021 1.759316,1.125445 0.620936,0.724425 0.620936,1.836934 0,0.944338 -0.517446,1.74638 -0.50451,0.814977 -1.461785,1.41004 -0.944339,0.595063 -2.263826,0.931403 -1.319488,0.33634 -2.92357,0.33634 z m 0.284595,-1.966295 q 1.927486,0 3.027059,-0.582127 1.112509,-0.56919 1.112509,-1.487657 0,-0.698552 -0.737361,-1.086637 -0.73736,-0.388084 -2.25089,-0.491573 l -2.354379,-0.181106 q -0.827913,0.06468 -1.435908,0.310467 -0.59507,0.245787 -0.90553,0.633872 -0.31047,0.388084 -0.31047,0.879658 0,0.595063 0.4657,1.047828 0.4657,0.452765 1.332422,0.698552 0.866722,0.258723 2.056848,0.258723 z m -0.09055,-7.916924 q -1.604083,0 -2.88476,-0.607999 -1.26775,-0.607999 -2.00511,-1.642891 -0.73736,-1.034892 -0.73736,-2.31557 0,-1.280679 0.73736,-2.315571 0.7503,-1.034892 2.01804,-1.642891 1.280684,-0.607999 2.87183,-0.607999 1.591146,0 2.858889,0.607999 1.267743,0.607999 2.005103,1.642891 0.750297,1.034892 0.750297,2.315571 0,1.267742 -0.737361,2.302634 -0.73736,1.034892 -2.005103,1.655827 -1.267742,0.607999 -2.871825,0.607999 z m 0,-2.134464 q 0.879658,0 1.565274,-0.297532 0.685616,-0.310467 1.073701,-0.853786 0.388084,-0.556254 0.388084,-1.280678 0,-1.086637 -0.853786,-1.759317 -0.84085,-0.685616 -2.173273,-0.685616 -0.892594,0 -1.57821,0.310468 -0.67268,0.310467 -1.06077,0.866722 -0.38808,0.543318 -0.38808,1.267743 0,1.0737 0.84085,1.759316 0.853787,0.67268 2.18621,0.67268 z m 1.992167,-4.359483 -1.060764,-1.979231 6.869095,-0.271659 -0.02587,2.354379 z M -83.75702,89.414768 V 70.786713 h 2.845953 v 18.628055 z m 10.703617,0 V 76.60798 h 2.845953 v 12.806788 z m 1.422976,-15.096486 q -0.763233,0 -1.319487,-0.491574 -0.556254,-0.491574 -0.556254,-1.293615 0,-0.789105 0.556254,-1.280679 0.556254,-0.504509 1.319487,-0.504509 0.763233,0 1.319488,0.504509 0.556254,0.491574 0.556254,1.280679 0,0.802041 -0.556254,1.293615 -0.556255,0.491574 -1.319488,0.491574 z m 13.601311,15.471635 q -1.591146,0 -2.975314,-0.452766 -1.384168,-0.452765 -2.328507,-1.215998 l 1.0737,-2.08272 q 0.892594,0.698552 2.005103,1.099573 1.125445,0.401021 2.212082,0.401021 1.254806,0 1.953358,-0.439829 0.698553,-0.439829 0.698553,-1.228935 0,-0.750296 -0.607999,-1.099572 -0.595063,-0.362213 -2.276763,-0.750297 -2.41906,-0.50451 -3.518632,-1.422976 -1.086637,-0.931403 -1.086637,-2.574294 0,-1.151318 0.633871,-2.030976 0.646808,-0.892594 1.772253,-1.397104 1.125445,-0.50451 2.600166,-0.50451 1.435912,0 2.703655,0.413957 1.267743,0.401021 2.199146,1.138381 l -1.00902,2.095656 q -0.478638,-0.426892 -1.112509,-0.73736 -0.633871,-0.310468 -1.34536,-0.478638 -0.698552,-0.181106 -1.397104,-0.181106 -1.086636,0 -1.772252,0.426893 -0.67268,0.413957 -0.67268,1.151318 0,0.763232 0.646808,1.125445 0.646807,0.362212 2.225017,0.724424 2.483741,0.543318 3.557441,1.448849 1.073701,0.90553 1.073701,2.509613 0,1.228934 -0.659744,2.147401 -0.659743,0.90553 -1.849869,1.41004 -1.17719,0.50451 -2.742464,0.50451 z M -45.66969,89.414768 V 70.786713 h 2.845952 v 8.434369 l -0.582126,-0.633871 q 0.853786,-1.190126 2.056848,-1.772252 1.203061,-0.595063 2.535485,-0.595063 1.74638,0 2.910634,0.711488 1.164253,0.698552 1.74638,1.811061 0.582126,1.112509 0.582126,2.315571 v 8.356752 h -2.845952 v -7.541775 q 0,-1.345359 -0.84085,-2.186209 -0.84085,-0.84085 -2.289699,-0.853786 -0.957275,0 -1.694635,0.426893 -0.737361,0.413957 -1.164254,1.17719 -0.413957,0.763232 -0.413957,1.772252 v 7.205435 z"
       id="text2"
       style="font-size:25.8723px;line-height:1;font-family:Geologica;-inkscape-font-specification:Geologica;text-align:center;letter-spacing:3.89919px;word-spacing:0px;white-space:pre;fill:#ffffff;stroke-width:1.51181;stroke-linecap:round;stroke-linejoin:round;paint-order:fill markers stroke"
       transform="matrix(0.21816555,0,0,0.21816555,42.891303,7.2051953)"
       aria-label="English" /></g></svg>
