<?xml version="1.0" encoding="UTF-8" standalone="no"?>
<!-- Created with Inkscape (http://www.inkscape.org/) -->

<svg
   width="31.026268mm"
   height="7.9916143mm"
   viewBox="0 0 31.026268 7.9916143"
   version="1.1"
   id="svg1"
   xml:space="preserve"
   inkscape:version="1.3.2 (091e20e, 2023-11-25, custom)"
   sodipodi:docname="es-select.svg"
   xmlns:inkscape="http://www.inkscape.org/namespaces/inkscape"
   xmlns:sodipodi="http://sodipodi.sourceforge.net/DTD/sodipodi-0.dtd"
   xmlns="http://www.w3.org/2000/svg"
   xmlns:svg="http://www.w3.org/2000/svg"><sodipodi:namedview
     id="namedview1"
     pagecolor="#ffffff"
     bordercolor="#000000"
     borderopacity="0.25"
     inkscape:showpageshadow="2"
     inkscape:pageopacity="0.0"
     inkscape:pagecheckerboard="0"
     inkscape:deskcolor="#d1d1d1"
     inkscape:document-units="mm"
     inkscape:zoom="1.0782241"
     inkscape:cx="144.68235"
     inkscape:cy="105.26569"
     inkscape:window-width="1366"
     inkscape:window-height="745"
     inkscape:window-x="-8"
     inkscape:window-y="-8"
     inkscape:window-maximized="1"
     inkscape:current-layer="layer1"
     showgrid="false"
     showguides="true"><inkscape:grid
       id="grid36"
       units="px"
       originx="-45.231134"
       originy="-4.9112105"
       spacingx="0.26458333"
       spacingy="0.26458334"
       empcolor="#0099e5"
       empopacity="0.30196078"
       color="#0099e5"
       opacity="0.14901961"
       empspacing="5"
       dotted="false"
       gridanglex="30"
       gridanglez="30"
       visible="false" /></sodipodi:namedview><defs
     id="defs1"><rect
       x="233.34715"
       y="662.14111"
       width="57.222073"
       height="60.194649"
       id="rect94" /><rect
       x="-771.8429"
       y="69.235077"
       width="638.50122"
       height="615.42291"
       id="rect4" /><rect
       x="-771.8429"
       y="69.235077"
       width="1042.3988"
       height="216.57401"
       id="rect5" /><rect
       x="-771.8429"
       y="69.235077"
       width="1042.3988"
       height="216.57401"
       id="rect6" /><rect
       x="-771.8429"
       y="69.235077"
       width="1367.2717"
       height="162.42851"
       id="rect7" /><rect
       x="-771.8429"
       y="69.235077"
       width="1367.2717"
       height="162.42851"
       id="rect8" /><rect
       x="-771.8429"
       y="69.235077"
       width="1367.2717"
       height="162.42851"
       id="rect9" /><rect
       x="-771.8429"
       y="69.235077"
       width="1367.2717"
       height="162.42851"
       id="rect10" /><rect
       x="-771.8429"
       y="69.235077"
       width="1367.2717"
       height="162.42851"
       id="rect11" /><rect
       x="-771.8429"
       y="69.235077"
       width="1367.2717"
       height="162.42851"
       id="rect12" /><rect
       x="-771.8429"
       y="69.235077"
       width="1367.2717"
       height="162.42851"
       id="rect13" /><rect
       x="-771.8429"
       y="69.235077"
       width="1367.2717"
       height="162.42851"
       id="rect14" /><rect
       x="-771.8429"
       y="69.235077"
       width="1367.2717"
       height="162.42851"
       id="rect15" /><rect
       x="-771.8429"
       y="69.235077"
       width="1367.2717"
       height="162.42851"
       id="rect16" /><rect
       x="-771.8429"
       y="69.235077"
       width="1367.2717"
       height="162.42851"
       id="rect17" /><rect
       x="-771.8429"
       y="69.235077"
       width="1367.2717"
       height="162.42851"
       id="rect18" /><rect
       x="-771.8429"
       y="69.235077"
       width="1367.2717"
       height="162.42851"
       id="rect19" /><rect
       x="-771.8429"
       y="69.235077"
       width="1367.2717"
       height="162.42851"
       id="rect20" /><rect
       x="-771.8429"
       y="69.235077"
       width="1042.3988"
       height="216.57401"
       id="rect21" /><rect
       x="-771.8429"
       y="69.235077"
       width="1367.2717"
       height="162.42851"
       id="rect25" /><rect
       x="-771.8429"
       y="69.235077"
       width="1367.2717"
       height="162.42851"
       id="rect26" /><rect
       x="-771.8429"
       y="69.235077"
       width="1367.2717"
       height="162.42851"
       id="rect27" /><rect
       x="-771.8429"
       y="69.235077"
       width="1367.2717"
       height="162.42851"
       id="rect28" /><rect
       x="-771.8429"
       y="69.235077"
       width="1367.2717"
       height="162.42851"
       id="rect29" /><rect
       x="-771.8429"
       y="69.235077"
       width="947.72205"
       height="349.51065"
       id="rect38" /><rect
       x="-771.8429"
       y="69.235077"
       width="1367.2717"
       height="162.42851"
       id="rect76" /><rect
       x="-771.8429"
       y="69.235077"
       width="1367.2717"
       height="162.42851"
       id="rect78" /><rect
       x="-771.8429"
       y="69.235077"
       width="1367.2717"
       height="162.42851"
       id="rect80" /><rect
       x="-771.8429"
       y="69.235077"
       width="1367.2717"
       height="162.42851"
       id="rect82" /><rect
       x="-771.8429"
       y="69.235077"
       width="1367.2717"
       height="162.42851"
       id="rect31" /><rect
       x="-771.8429"
       y="69.235077"
       width="1367.2717"
       height="162.42851"
       id="rect32" /><rect
       x="-771.8429"
       y="69.235077"
       width="1367.2717"
       height="162.42851"
       id="rect33" /><rect
       x="-771.8429"
       y="69.235077"
       width="1367.2717"
       height="162.42851"
       id="rect34" /><rect
       x="-771.8429"
       y="69.235077"
       width="1367.2717"
       height="162.42851"
       id="rect85" /><rect
       x="-771.8429"
       y="69.235077"
       width="1367.2717"
       height="162.42851"
       id="rect87" /><rect
       x="-771.8429"
       y="69.235077"
       width="1367.2717"
       height="162.42851"
       id="rect89" /><rect
       x="-771.8429"
       y="69.235077"
       width="1367.2717"
       height="162.42851"
       id="rect92" /><rect
       x="-771.8429"
       y="69.235077"
       width="1367.2717"
       height="162.42851"
       id="rect3" /><rect
       x="-771.8429"
       y="69.235077"
       width="1367.2717"
       height="162.42851"
       id="rect23" /></defs><g
     inkscape:label="Layer 1"
     inkscape:groupmode="layer"
     id="layer1"
     transform="translate(-45.231133,-4.9112105)"><path
       id="rect88"
       style="fill:#ffffff;stroke-width:0.4;paint-order:fill markers stroke"
       d="m 49.22694,4.9112105 h 23.034653 c 2.213678,0 3.995808,1.78213 3.995808,3.9958072 0,2.2136773 -1.78213,3.9958073 -3.995808,3.9958073 H 49.22694 c -2.213677,0 -3.995807,-1.78213 -3.995807,-3.9958073 0,-2.2136772 1.78213,-3.9958072 3.995807,-3.9958072 z" /><path
       d="M -146.55233,89.414768 V 71.304159 h 11.70721 v 2.561358 h -8.80952 v 4.889864 h 7.60646 v 2.41906 h -7.60646 v 5.653097 h 8.88714 v 2.58723 z m 23.69147,0.375149 q -1.59114,0 -2.97531,-0.452766 -1.38417,-0.452765 -2.32851,-1.215998 l 1.0737,-2.08272 q 0.8926,0.698552 2.00511,1.099573 1.12544,0.401021 2.21208,0.401021 1.25481,0 1.95336,-0.439829 0.69855,-0.439829 0.69855,-1.228935 0,-0.750296 -0.608,-1.099572 -0.59506,-0.362213 -2.27676,-0.750297 -2.41906,-0.50451 -3.51863,-1.422976 -1.08664,-0.931403 -1.08664,-2.574294 0,-1.151318 0.63387,-2.030976 0.64681,-0.892594 1.77225,-1.397104 1.12545,-0.50451 2.60017,-0.50451 1.43591,0 2.70365,0.413957 1.26775,0.401021 2.19915,1.138381 l -1.00902,2.095656 q -0.47864,-0.426892 -1.11251,-0.73736 -0.63387,-0.310468 -1.34536,-0.478638 -0.69855,-0.181106 -1.3971,-0.181106 -1.08664,0 -1.77226,0.426893 -0.67268,0.413957 -0.67268,1.151318 0,0.763232 0.64681,1.125445 0.64681,0.362212 2.22502,0.724424 2.48374,0.543318 3.55744,1.448849 1.0737,0.90553 1.0737,2.509613 0,1.228934 -0.65974,2.147401 -0.65975,0.90553 -1.84987,1.41004 -1.17719,0.50451 -2.74247,0.50451 z m 12.35942,5.058034 V 76.60798 h 2.56136 v 1.798125 q 0.76323,-0.970211 1.95336,-1.57821 1.19012,-0.607999 2.93651,-0.607999 1.87574,0 3.324585,0.892594 1.461785,0.879658 2.276763,2.41906 0.814977,1.526466 0.814977,3.479824 0,1.410041 -0.465701,2.651911 -0.465702,1.228934 -1.332424,2.160337 -0.853785,0.931403 -2.04391,1.461785 -1.17719,0.517446 -2.6131,0.517446 -1.5006,0 -2.63898,-0.543318 -1.13838,-0.543319 -1.94042,-1.461785 v 7.050201 z m 6.93378,-7.567647 q 1.19012,0 2.10859,-0.517446 0.9314,-0.530382 1.44885,-1.487657 0.530382,-0.957276 0.530382,-2.263827 0,-1.306551 -0.530382,-2.263826 -0.53038,-0.970211 -1.46178,-1.487657 -0.91847,-0.517446 -2.09566,-0.517446 -1.19013,0 -2.12153,0.517446 -0.91847,0.517446 -1.44885,1.487657 -0.53038,0.957275 -0.53038,2.263826 0,1.306551 0.53038,2.263827 0.53038,0.957275 1.44885,1.487657 0.9314,0.517446 2.12153,0.517446 z m 17.249286,2.522549 q -1.332424,0 -2.341443,-0.491574 -1.00902,-0.50451 -1.578211,-1.41004 -0.556254,-0.918467 -0.556254,-2.160337 0,-1.047828 0.530382,-1.888678 0.530382,-0.853786 1.642891,-1.41004 1.125445,-0.556255 2.884762,-0.737361 1.759316,-0.194042 4.23012,0.05174 l 0.05175,1.966295 q -1.759316,-0.245787 -3.027059,-0.206979 -1.267743,0.03881 -2.08272,0.323404 -0.802041,0.271659 -1.190126,0.73736 -0.375148,0.452766 -0.375148,1.047829 0,0.931402 0.659743,1.435912 0.67268,0.50451 1.836934,0.50451 0.996083,0 1.785188,-0.362212 0.789106,-0.362212 1.241871,-1.021956 0.465701,-0.659744 0.465701,-1.552338 v -3.402207 q 0,-0.853786 -0.362212,-1.474721 -0.362212,-0.633872 -1.099573,-0.983148 -0.73736,-0.349276 -1.836933,-0.349276 -1.00902,0 -1.992167,0.310468 -0.983147,0.297531 -1.875742,0.944339 l -0.802041,-2.095657 q 1.203062,-0.814977 2.509613,-1.151317 1.306551,-0.33634 2.509613,-0.33634 1.785189,0 3.052931,0.569191 1.280679,0.556254 1.966295,1.694635 0.685616,1.125445 0.685616,2.845953 v 8.214455 h -2.561358 v -1.513529 q -0.646807,0.918466 -1.798124,1.41004 -1.151318,0.491574 -2.574294,0.491574 z m 14.623261,-0.388085 V 76.60798 h 2.845953 v 1.629955 q 0.802041,-1.0737 1.862805,-1.539402 1.060765,-0.478637 2.199146,-0.478637 1.759316,0 2.910633,0.698552 1.151318,0.698552 1.707572,1.798125 0.569191,1.099572 0.569191,2.263826 v 8.434369 h -2.845953 v -7.554711 q 0,-1.371232 -0.827914,-2.199145 -0.814977,-0.827914 -2.276762,-0.827914 -0.957275,0 -1.707572,0.426893 -0.73736,0.426893 -1.164253,1.190126 -0.426893,0.750296 -0.426893,1.759316 v 7.205435 z m 2.444932,-15.381081 -1.293615,-1.138382 q 0.465702,-1.203062 1.228934,-1.901614 0.776169,-0.711488 1.785189,-0.711488 0.789105,0 1.461785,0.349276 0.685616,0.33634 1.306551,0.685616 0.620935,0.349276 1.228934,0.349276 0.569191,0 0.983148,-0.426893 0.426893,-0.426893 0.698552,-1.24187 l 1.280679,1.164253 q -0.33634,1.241871 -1.125445,1.91455 -0.789106,0.67268 -1.785189,0.67268 -0.789105,0 -1.487657,-0.33634 -0.698552,-0.349276 -1.332424,-0.685616 -0.633871,-0.349276 -1.228934,-0.349276 -0.582127,0 -1.00902,0.426893 -0.426893,0.413957 -0.711488,1.228935 z m 23.212849,15.769166 q -2.005103,0 -3.583313,-0.918467 -1.565274,-0.931403 -2.457869,-2.470804 -0.892594,-1.552338 -0.892594,-3.402208 0,-1.371232 0.50451,-2.58723 0.517446,-1.228934 1.448849,-2.173273 0.944339,-0.944339 2.212081,-1.487657 1.267743,-0.543318 2.781272,-0.543318 2.005104,0 3.570378,0.931403 1.57821,0.918466 2.470804,2.470804 0.892595,1.539402 0.892595,3.389271 0,1.358296 -0.517446,2.58723 -0.50451,1.228934 -1.435913,2.173273 -0.931403,0.944339 -2.199145,1.487658 -1.267743,0.543318 -2.794209,0.543318 z m 0,-2.522549 q 1.190126,0 2.108593,-0.517446 0.931402,-0.530382 1.461785,-1.487657 0.530382,-0.957276 0.530382,-2.263827 0,-1.306551 -0.530382,-2.263826 -0.530383,-0.970211 -1.461785,-1.487657 -0.918467,-0.517446 -2.108593,-0.517446 -1.190126,0 -2.121528,0.517446 -0.918467,0.517446 -1.448849,1.487657 -0.517446,0.957275 -0.517446,2.263826 0,1.306551 0.530382,2.263827 0.530382,0.957275 1.448849,1.487657 0.931403,0.517446 2.108592,0.517446 z m 13.704783,2.134464 V 70.786713 h 2.845953 v 18.628055 z"
       id="text88"
       style="font-size:25.8723px;line-height:1;font-family:Geologica;-inkscape-font-specification:Geologica;text-align:center;letter-spacing:3.89919px;word-spacing:0px;white-space:pre;fill:#0d1117;stroke-width:1.51181;stroke-linecap:round;stroke-linejoin:round;paint-order:fill markers stroke"
       transform="matrix(0.21816555,0,0,0.21816555,79.947042,-8.5456271)"
       aria-label="Español" /><text
       xml:space="preserve"
       transform="scale(0.26458333)"
       id="text93"
       style="font-style:normal;font-variant:normal;font-weight:normal;font-stretch:normal;font-size:21.3333px;line-height:1;font-family:Geologica;-inkscape-font-specification:Geologica;text-align:justify;letter-spacing:1px;word-spacing:0px;white-space:pre;shape-inside:url(#rect94);display:inline;fill:none;fill-opacity:1;stroke:#ffffff;stroke-width:6.04724;stroke-dasharray:none;paint-order:fill markers stroke" /></g></svg>
