<?xml version="1.0" encoding="UTF-8" standalone="no"?>
<!-- Created with Inkscape (http://www.inkscape.org/) -->

<svg
   width="31.425781mm"
   height="8.3925791mm"
   viewBox="0 0 31.425781 8.392579"
   version="1.1"
   id="svg1"
   xml:space="preserve"
   inkscape:version="1.2.2 (b0a8486541, 2022-12-01)"
   sodipodi:docname="es-unselect-bk.svg"
   xmlns:inkscape="http://www.inkscape.org/namespaces/inkscape"
   xmlns:sodipodi="http://sodipodi.sourceforge.net/DTD/sodipodi-0.dtd"
   xmlns="http://www.w3.org/2000/svg"
   xmlns:svg="http://www.w3.org/2000/svg"><sodipodi:namedview
     id="namedview1"
     pagecolor="#ffffff"
     bordercolor="#000000"
     borderopacity="0.25"
     inkscape:showpageshadow="2"
     inkscape:pageopacity="0.0"
     inkscape:pagecheckerboard="0"
     inkscape:deskcolor="#d1d1d1"
     inkscape:document-units="mm"
     inkscape:zoom="3.8139113"
     inkscape:cx="46.277951"
     inkscape:cy="31.725961"
     inkscape:window-width="1366"
     inkscape:window-height="710"
     inkscape:window-x="0"
     inkscape:window-y="0"
     inkscape:window-maximized="1"
     inkscape:current-layer="layer1"
     showgrid="false"
     showguides="true"><inkscape:grid
       id="grid36"
       units="px"
       originx="-45.03125"
       originy="-20.585938"
       spacingx="0.26458333"
       spacingy="0.26458334"
       empcolor="#0099e5"
       empopacity="0.30196078"
       color="#0099e5"
       opacity="0.14901961"
       empspacing="5"
       dotted="false"
       gridanglex="30"
       gridanglez="30"
       visible="false" /></sodipodi:namedview><defs
     id="defs1"><rect
       x="233.34715"
       y="662.14111"
       width="57.222073"
       height="60.194649"
       id="rect94" /><rect
       x="-771.8429"
       y="69.235077"
       width="638.50122"
       height="615.42291"
       id="rect4" /><rect
       x="-771.8429"
       y="69.235077"
       width="1042.3988"
       height="216.57401"
       id="rect5" /><rect
       x="-771.8429"
       y="69.235077"
       width="1042.3988"
       height="216.57401"
       id="rect6" /><rect
       x="-771.8429"
       y="69.235077"
       width="1367.2717"
       height="162.42851"
       id="rect7" /><rect
       x="-771.8429"
       y="69.235077"
       width="1367.2717"
       height="162.42851"
       id="rect8" /><rect
       x="-771.8429"
       y="69.235077"
       width="1367.2717"
       height="162.42851"
       id="rect9" /><rect
       x="-771.8429"
       y="69.235077"
       width="1367.2717"
       height="162.42851"
       id="rect10" /><rect
       x="-771.8429"
       y="69.235077"
       width="1367.2717"
       height="162.42851"
       id="rect11" /><rect
       x="-771.8429"
       y="69.235077"
       width="1367.2717"
       height="162.42851"
       id="rect12" /><rect
       x="-771.8429"
       y="69.235077"
       width="1367.2717"
       height="162.42851"
       id="rect13" /><rect
       x="-771.8429"
       y="69.235077"
       width="1367.2717"
       height="162.42851"
       id="rect14" /><rect
       x="-771.8429"
       y="69.235077"
       width="1367.2717"
       height="162.42851"
       id="rect15" /><rect
       x="-771.8429"
       y="69.235077"
       width="1367.2717"
       height="162.42851"
       id="rect16" /><rect
       x="-771.8429"
       y="69.235077"
       width="1367.2717"
       height="162.42851"
       id="rect17" /><rect
       x="-771.8429"
       y="69.235077"
       width="1367.2717"
       height="162.42851"
       id="rect18" /><rect
       x="-771.8429"
       y="69.235077"
       width="1367.2717"
       height="162.42851"
       id="rect19" /><rect
       x="-771.8429"
       y="69.235077"
       width="1367.2717"
       height="162.42851"
       id="rect20" /><rect
       x="-771.8429"
       y="69.235077"
       width="1042.3988"
       height="216.57401"
       id="rect21" /><rect
       x="-771.8429"
       y="69.235077"
       width="1367.2717"
       height="162.42851"
       id="rect25" /><rect
       x="-771.8429"
       y="69.235077"
       width="1367.2717"
       height="162.42851"
       id="rect26" /><rect
       x="-771.8429"
       y="69.235077"
       width="1367.2717"
       height="162.42851"
       id="rect27" /><rect
       x="-771.8429"
       y="69.235077"
       width="1367.2717"
       height="162.42851"
       id="rect28" /><rect
       x="-771.8429"
       y="69.235077"
       width="1367.2717"
       height="162.42851"
       id="rect29" /><rect
       x="-771.8429"
       y="69.235077"
       width="947.72205"
       height="349.51065"
       id="rect38" /><rect
       x="-771.8429"
       y="69.235077"
       width="1367.2717"
       height="162.42851"
       id="rect76" /><rect
       x="-771.8429"
       y="69.235077"
       width="1367.2717"
       height="162.42851"
       id="rect78" /><rect
       x="-771.8429"
       y="69.235077"
       width="1367.2717"
       height="162.42851"
       id="rect80" /><rect
       x="-771.8429"
       y="69.235077"
       width="1367.2717"
       height="162.42851"
       id="rect82" /><rect
       x="-771.8429"
       y="69.235077"
       width="1367.2717"
       height="162.42851"
       id="rect31" /><rect
       x="-771.8429"
       y="69.235077"
       width="1367.2717"
       height="162.42851"
       id="rect32" /><rect
       x="-771.8429"
       y="69.235077"
       width="1367.2717"
       height="162.42851"
       id="rect33" /><rect
       x="-771.8429"
       y="69.235077"
       width="1367.2717"
       height="162.42851"
       id="rect34" /><rect
       x="-771.8429"
       y="69.235077"
       width="1367.2717"
       height="162.42851"
       id="rect85" /><rect
       x="-771.8429"
       y="69.235077"
       width="1367.2717"
       height="162.42851"
       id="rect87" /><rect
       x="-771.8429"
       y="69.235077"
       width="1367.2717"
       height="162.42851"
       id="rect89" /><rect
       x="-771.8429"
       y="69.235077"
       width="1367.2717"
       height="162.42851"
       id="rect92" /><rect
       x="-771.8429"
       y="69.235077"
       width="1367.2717"
       height="162.42851"
       id="rect3" /><rect
       x="-771.8429"
       y="69.235077"
       width="1367.2717"
       height="162.42851"
       id="rect23" /></defs><g
     inkscape:label="Layer 1"
     inkscape:groupmode="layer"
     id="layer1"
     transform="translate(-45.03125,-20.585937)"><text
       xml:space="preserve"
       transform="scale(0.26458333)"
       id="text93"
       style="font-style:normal;font-variant:normal;font-weight:normal;font-stretch:normal;font-size:21.3333px;line-height:1;font-family:Geologica;-inkscape-font-specification:Geologica;text-align:justify;letter-spacing:1px;word-spacing:0px;white-space:pre;shape-inside:url(#rect94);display:inline;fill:none;fill-opacity:1;stroke:#ffffff;stroke-width:6.04724;stroke-dasharray:none;paint-order:fill markers stroke" /><path
       d="m 47.974372,26.836595 v -3.951111 h 2.55411 v 0.5588 h -1.921934 v 1.0668 h 1.659468 v 0.527756 h -1.659468 v 1.233311 h 1.938868 v 0.564444 z m 5.168663,0.08185 q -0.347132,0 -0.64911,-0.09878 -0.301978,-0.09878 -0.508001,-0.265289 l 0.234244,-0.454378 q 0.194735,0.1524 0.437446,0.239889 0.245533,0.08749 0.4826,0.08749 0.273756,0 0.426156,-0.09596 0.152399,-0.09596 0.152399,-0.268111 0,-0.163689 -0.132644,-0.239889 -0.129822,-0.07902 -0.496711,-0.163689 -0.527755,-0.110066 -0.767644,-0.310444 -0.237067,-0.2032 -0.237067,-0.561622 0,-0.251178 0.138289,-0.443089 0.141111,-0.194733 0.386643,-0.3048 0.245535,-0.110067 0.567268,-0.110067 0.313266,0 0.589843,0.09031 0.27658,0.08749 0.479779,0.248356 l -0.220133,0.4572 q -0.104423,-0.09313 -0.242712,-0.160867 -0.138288,-0.06773 -0.293511,-0.104422 -0.1524,-0.03951 -0.304799,-0.03951 -0.237067,0 -0.386646,0.09313 -0.146756,0.09031 -0.146756,0.251178 0,0.166511 0.141112,0.245533 0.141112,0.07902 0.485423,0.158045 0.541866,0.118533 0.77611,0.316089 0.234245,0.197555 0.234245,0.547511 0,0.268111 -0.143933,0.468489 -0.143934,0.197555 -0.403578,0.307622 -0.256822,0.110067 -0.598312,0.110067 z m 2.6964,1.103488 V 24.0426 h 0.5588 v 0.392289 q 0.166511,-0.211667 0.426156,-0.344311 0.259643,-0.132645 0.640645,-0.132645 0.409222,0 0.72531,0.194734 0.318911,0.191911 0.496711,0.527755 0.1778,0.333023 0.1778,0.759178 0,0.307622 -0.1016,0.578556 -0.1016,0.268111 -0.290689,0.471311 -0.186266,0.2032 -0.44591,0.318911 -0.256823,0.112889 -0.570089,0.112889 -0.327379,0 -0.575734,-0.118533 -0.248356,-0.118534 -0.423333,-0.318912 v 1.538111 z m 1.512711,-1.651 q 0.259644,0 0.460022,-0.112888 0.2032,-0.115711 0.316089,-0.324556 0.115711,-0.208845 0.115711,-0.493889 0,-0.285044 -0.115711,-0.493889 -0.11571,-0.211666 -0.31891,-0.324555 -0.200378,-0.112889 -0.457201,-0.112889 -0.259645,0 -0.462844,0.112889 -0.200379,0.112889 -0.316089,0.324555 -0.115711,0.208845 -0.115711,0.493889 0,0.285044 0.115711,0.493889 0.11571,0.208845 0.316089,0.324556 0.203199,0.112888 0.462844,0.112888 z m 3.7632,0.550334 q -0.290689,0 -0.510822,-0.107245 -0.220133,-0.110066 -0.344311,-0.307622 -0.121355,-0.200378 -0.121355,-0.471311 0,-0.2286 0.115711,-0.412044 0.115711,-0.186267 0.358422,-0.307623 0.245533,-0.121355 0.629356,-0.160866 0.383822,-0.04233 0.922866,0.01129 l 0.01129,0.428978 q -0.383822,-0.05362 -0.6604,-0.04516 -0.276578,0.0085 -0.454378,0.07055 -0.174977,0.05927 -0.259644,0.160867 -0.08185,0.09878 -0.08185,0.2286 0,0.2032 0.143934,0.313267 0.146755,0.110066 0.400755,0.110066 0.217311,0 0.389467,-0.07902 0.172156,-0.07902 0.270933,-0.222956 0.1016,-0.143933 0.1016,-0.338666 v -0.742245 q 0,-0.186266 -0.07902,-0.321733 -0.07902,-0.138289 -0.239889,-0.214489 -0.160866,-0.0762 -0.400755,-0.0762 -0.220134,0 -0.434623,0.06773 -0.214488,0.06491 -0.409222,0.206022 l -0.174978,-0.4572 q 0.262467,-0.1778 0.547512,-0.251178 0.285044,-0.07338 0.547511,-0.07338 0.389466,0 0.666044,0.124178 0.2794,0.121355 0.428978,0.369711 0.149578,0.245533 0.149578,0.620889 v 1.792111 h -0.5588 v -0.3302 q -0.141111,0.200378 -0.392289,0.307622 -0.251178,0.107245 -0.561622,0.107245 z m 3.190292,-0.08467 v -2.794 h 0.620889 v 0.3556 q 0.174978,-0.234244 0.4064,-0.335844 0.231422,-0.104423 0.479778,-0.104423 0.383822,0 0.635,0.1524 0.251178,0.1524 0.372533,0.392289 0.124178,0.239889 0.124178,0.493889 v 1.840089 h -0.620889 v -1.648178 q 0,-0.299155 -0.180622,-0.479777 -0.1778,-0.180623 -0.496711,-0.180623 -0.208845,0 -0.372534,0.09313 -0.160866,0.09313 -0.254,0.259644 -0.09313,0.163689 -0.09313,0.383822 v 1.571978 z m 0.5334,-3.355622 -0.282222,-0.248356 q 0.1016,-0.262466 0.268111,-0.414866 0.169333,-0.155223 0.389467,-0.155223 0.172155,0 0.318911,0.0762 0.149578,0.07338 0.285044,0.149578 0.135467,0.0762 0.268111,0.0762 0.124178,0 0.214489,-0.09313 0.09313,-0.09313 0.1524,-0.270933 l 0.2794,0.254 q -0.07338,0.270933 -0.245533,0.417688 -0.172156,0.146756 -0.389467,0.146756 -0.172155,0 -0.324555,-0.07338 -0.1524,-0.0762 -0.290689,-0.149578 -0.138289,-0.0762 -0.268111,-0.0762 -0.127,0 -0.220134,0.09313 -0.09313,0.09031 -0.155222,0.268111 z m 5.064244,3.440289 q -0.437444,0 -0.781755,-0.200378 -0.341489,-0.2032 -0.536223,-0.539044 -0.194733,-0.338667 -0.194733,-0.742245 0,-0.299156 0.110067,-0.564444 0.112889,-0.268111 0.316089,-0.474134 0.206022,-0.206022 0.4826,-0.324555 0.276577,-0.118534 0.606777,-0.118534 0.437445,0 0.778934,0.203201 0.344311,0.200377 0.539044,0.539044 0.194734,0.335844 0.194734,0.739422 0,0.296333 -0.112889,0.564444 -0.110067,0.268112 -0.313267,0.474134 -0.2032,0.206022 -0.479778,0.324556 -0.276578,0.118533 -0.6096,0.118533 z m 0,-0.550334 q 0.259645,0 0.460022,-0.112888 0.2032,-0.115711 0.318912,-0.324556 0.115711,-0.208845 0.115711,-0.493889 0,-0.285044 -0.115711,-0.493889 -0.115712,-0.211666 -0.318912,-0.324555 -0.200377,-0.112889 -0.460022,-0.112889 -0.259644,0 -0.462844,0.112889 -0.200378,0.112889 -0.316089,0.324555 -0.112889,0.208845 -0.112889,0.493889 0,0.285044 0.115711,0.493889 0.115711,0.208845 0.316089,0.324556 0.2032,0.112888 0.460022,0.112888 z m 2.989912,0.465667 v -4.064 h 0.620889 v 4.064 z"
       id="text22"
       style="font-size:25.8723px;line-height:1;font-family:Geologica;-inkscape-font-specification:Geologica;text-align:center;letter-spacing:3.89919px;word-spacing:0px;white-space:pre;fill:#000000;stroke-width:0.329825;stroke-linecap:round;stroke-linejoin:round;paint-order:fill markers stroke"
       aria-label="Español" /><path
       style="color:#000000;fill:#000000;-inkscape-stroke:none;paint-order:fill markers stroke"
       d="m 72.261719,20.585937 c 2.321016,0 4.195313,1.874298 4.195313,4.195313 0,2.321015 -1.874297,4.197266 -4.195313,4.197266 H 49.226563 c -2.321016,0 -4.195313,-1.876251 -4.195313,-4.197266 0,-2.321015 1.874297,-4.195313 4.195313,-4.195313 z m 0,0.400391 H 49.226563 c -2.106335,0 -3.796875,1.688587 -3.796875,3.794922 0,2.106335 1.69054,3.796875 3.796875,3.796875 h 23.035156 c 2.106335,0 3.794922,-1.69054 3.794922,-3.796875 0,-2.106335 -1.688587,-3.794922 -3.794922,-3.794922 z"
       id="rect2" /></g></svg>
