<?xml version="1.0" encoding="UTF-8" standalone="no"?>
<!-- Created with Inkscape (http://www.inkscape.org/) -->

<svg
   width="212.06665mm"
   height="53.712055mm"
   viewBox="0 0 212.06665 53.712055"
   version="1.1"
   id="svg1"
   xml:space="preserve"
   inkscape:version="1.2.2 (b0a8486541, 2022-12-01)"
   sodipodi:docname="header-en-bk.svg"
   xmlns:inkscape="http://www.inkscape.org/namespaces/inkscape"
   xmlns:sodipodi="http://sodipodi.sourceforge.net/DTD/sodipodi-0.dtd"
   xmlns="http://www.w3.org/2000/svg"
   xmlns:svg="http://www.w3.org/2000/svg"><sodipodi:namedview
     id="namedview1"
     pagecolor="#ffffff"
     bordercolor="#000000"
     borderopacity="0.25"
     inkscape:showpageshadow="2"
     inkscape:pageopacity="0.0"
     inkscape:pagecheckerboard="0"
     inkscape:deskcolor="#d1d1d1"
     inkscape:document-units="mm"
     inkscape:zoom="1.1830676"
     inkscape:cx="487.71516"
     inkscape:cy="161.44471"
     inkscape:window-width="1366"
     inkscape:window-height="710"
     inkscape:window-x="0"
     inkscape:window-y="0"
     inkscape:window-maximized="1"
     inkscape:current-layer="layer1"
     showgrid="true"
     showguides="true"><inkscape:grid
       id="grid36"
       units="px"
       originx="-259.09174"
       originy="0.59538436"
       spacingx="0.26458333"
       spacingy="0.26458334"
       empcolor="#0099e5"
       empopacity="0.30196078"
       color="#0099e5"
       opacity="0.14901961"
       empspacing="5"
       dotted="false"
       gridanglex="30"
       gridanglez="30"
       visible="true" /></sodipodi:namedview><defs
     id="defs1"><rect
       x="233.34715"
       y="662.14111"
       width="57.222073"
       height="60.194649"
       id="rect94" /><rect
       x="-771.8429"
       y="69.235077"
       width="638.50122"
       height="615.42291"
       id="rect4" /><rect
       x="-771.8429"
       y="69.235077"
       width="1042.3988"
       height="216.57401"
       id="rect5" /><rect
       x="-771.8429"
       y="69.235077"
       width="1042.3988"
       height="216.57401"
       id="rect6" /><rect
       x="-771.8429"
       y="69.235077"
       width="1367.2717"
       height="162.42851"
       id="rect7" /><rect
       x="-771.8429"
       y="69.235077"
       width="1367.2717"
       height="162.42851"
       id="rect8" /><rect
       x="-771.8429"
       y="69.235077"
       width="1367.2717"
       height="162.42851"
       id="rect9" /><rect
       x="-771.8429"
       y="69.235077"
       width="1367.2717"
       height="162.42851"
       id="rect10" /><rect
       x="-771.8429"
       y="69.235077"
       width="1367.2717"
       height="162.42851"
       id="rect11" /><rect
       x="-771.8429"
       y="69.235077"
       width="1367.2717"
       height="162.42851"
       id="rect12" /><rect
       x="-771.8429"
       y="69.235077"
       width="1367.2717"
       height="162.42851"
       id="rect13" /><rect
       x="-771.8429"
       y="69.235077"
       width="1367.2717"
       height="162.42851"
       id="rect14" /><rect
       x="-771.8429"
       y="69.235077"
       width="1367.2717"
       height="162.42851"
       id="rect15" /><rect
       x="-771.8429"
       y="69.235077"
       width="1367.2717"
       height="162.42851"
       id="rect16" /><rect
       x="-771.8429"
       y="69.235077"
       width="1367.2717"
       height="162.42851"
       id="rect17" /><rect
       x="-771.8429"
       y="69.235077"
       width="1367.2717"
       height="162.42851"
       id="rect18" /><rect
       x="-771.8429"
       y="69.235077"
       width="1367.2717"
       height="162.42851"
       id="rect19" /><rect
       x="-771.8429"
       y="69.235077"
       width="1367.2717"
       height="162.42851"
       id="rect20" /><rect
       x="-771.8429"
       y="69.235077"
       width="1042.3988"
       height="216.57401"
       id="rect21" /><rect
       x="-771.8429"
       y="69.235077"
       width="1367.2717"
       height="162.42851"
       id="rect25" /><rect
       x="-771.8429"
       y="69.235077"
       width="1367.2717"
       height="162.42851"
       id="rect26" /><rect
       x="-771.8429"
       y="69.235077"
       width="1367.2717"
       height="162.42851"
       id="rect27" /><rect
       x="-771.8429"
       y="69.235077"
       width="1367.2717"
       height="162.42851"
       id="rect28" /><rect
       x="-771.8429"
       y="69.235077"
       width="1367.2717"
       height="162.42851"
       id="rect29" /><rect
       x="-771.8429"
       y="69.235077"
       width="947.72205"
       height="349.51065"
       id="rect38" /><rect
       x="-771.8429"
       y="69.235077"
       width="1367.2717"
       height="162.42851"
       id="rect76" /><rect
       x="-771.8429"
       y="69.235077"
       width="1367.2717"
       height="162.42851"
       id="rect78" /><rect
       x="-771.8429"
       y="69.235077"
       width="1367.2717"
       height="162.42851"
       id="rect80" /><rect
       x="-771.8429"
       y="69.235077"
       width="1367.2717"
       height="162.42851"
       id="rect82" /><rect
       x="-771.8429"
       y="69.235077"
       width="1367.2717"
       height="162.42851"
       id="rect31" /><rect
       x="-771.8429"
       y="69.235077"
       width="1367.2717"
       height="162.42851"
       id="rect32" /><rect
       x="-771.8429"
       y="69.235077"
       width="1367.2717"
       height="162.42851"
       id="rect33" /><rect
       x="-771.8429"
       y="69.235077"
       width="1367.2717"
       height="162.42851"
       id="rect34" /><rect
       x="-771.8429"
       y="69.235077"
       width="1367.2717"
       height="162.42851"
       id="rect85" /><rect
       x="-771.8429"
       y="69.235077"
       width="1367.2717"
       height="162.42851"
       id="rect87" /><rect
       x="-771.8429"
       y="69.235077"
       width="1367.2717"
       height="162.42851"
       id="rect89" /><rect
       x="-771.8429"
       y="69.235077"
       width="1367.2717"
       height="162.42851"
       id="rect92" /><rect
       x="-771.8429"
       y="69.235077"
       width="1367.2717"
       height="162.42851"
       id="rect51" /><rect
       x="-771.8429"
       y="69.235077"
       width="1367.2717"
       height="162.42851"
       id="rect57" /><rect
       x="-771.8429"
       y="69.235077"
       width="1367.2717"
       height="162.42851"
       id="rect58" /><rect
       x="-771.8429"
       y="69.235077"
       width="1367.2717"
       height="162.42851"
       id="rect59" /></defs><g
     inkscape:label="Layer 1"
     inkscape:groupmode="layer"
     id="layer1"
     transform="translate(-259.09175,0.59538437)"><path
       id="text57"
       style="font-size:25.8723px;line-height:1;font-family:Geologica;-inkscape-font-specification:Geologica;text-align:center;letter-spacing:3.89919px;word-spacing:0px;white-space:pre;fill:#000000;stroke-width:0.329825;stroke-linecap:round;stroke-linejoin:round;paint-order:fill markers stroke"
       d="m 287.98095,13.264261 c -1.11478,0 -2.14861,0.193821 -3.10111,0.581876 -0.94544,0.388055 -1.77078,0.931376 -2.47633,1.629875 -0.6985,0.698499 -1.2451,1.517276 -1.64021,2.455664 -0.38806,0.938387 -0.58239,1.957545 -0.58239,3.058211 0,1.093609 0.19433,2.110004 0.58239,3.048393 0.39511,0.938387 0.94171,1.756647 1.64021,2.455147 0.70555,0.698499 1.53089,1.2451 2.47633,1.64021 0.9525,0.388055 1.98633,0.582394 3.10111,0.582394 1.10772,0 2.13447,-0.194339 3.07991,-0.582394 0.94544,-0.39511 1.77078,-0.941711 2.47634,-1.64021 0.70555,-0.6985 1.25215,-1.51676 1.64021,-2.455147 0.39511,-0.938389 0.59273,-1.954784 0.59273,-3.048393 0,-1.079499 -0.19762,-2.084505 -0.59273,-3.015836 -0.38806,-0.938388 -0.93466,-1.760445 -1.64021,-2.466 -0.70556,-0.705554 -1.5309,-1.255951 -2.47634,-1.651062 -0.94544,-0.39511 -1.97219,-0.592728 -3.07991,-0.592728 z m 87.52024,0 c -1.11478,0 -2.14809,0.193821 -3.10059,0.581876 -0.94544,0.388055 -1.7713,0.931376 -2.47685,1.629875 -0.6985,0.698499 -1.2451,1.517276 -1.64021,2.455664 -0.38806,0.938387 -0.58188,1.957545 -0.58188,3.058211 0,1.093609 0.19382,2.110004 0.58188,3.048393 0.39511,0.938387 0.94171,1.756647 1.64021,2.455147 0.70555,0.698499 1.53141,1.2451 2.47685,1.64021 0.9525,0.388055 1.98581,0.582394 3.10059,0.582394 1.10772,0 2.13447,-0.194339 3.07991,-0.582394 0.94544,-0.39511 1.77078,-0.941711 2.47634,-1.64021 0.70555,-0.6985 1.25267,-1.51676 1.64072,-2.455147 0.39511,-0.938389 0.59273,-1.954784 0.59273,-3.048393 0,-1.079499 -0.19762,-2.084505 -0.59273,-3.015836 -0.38805,-0.938388 -0.93517,-1.760445 -1.64072,-2.466 -0.70556,-0.705554 -1.5309,-1.255951 -2.47634,-1.651062 -0.94544,-0.39511 -1.97219,-0.592728 -3.07991,-0.592728 z m 30.42449,0 c -1.1571,0 -2.2258,0.183465 -3.20652,0.550354 -0.97366,0.366888 -1.82402,0.892259 -2.55075,1.576648 -0.71966,0.677332 -1.28041,1.492313 -1.68258,2.444812 -0.40217,0.945443 -0.60306,2.003779 -0.60306,3.175 0,1.178276 0.20797,2.240407 0.62425,3.185852 0.41627,0.945442 0.99826,1.756628 1.74614,2.43396 0.75495,0.670278 1.63361,1.185293 2.6355,1.545125 1.00189,0.359833 2.09181,0.540019 3.27009,0.540019 0.47977,0 1.02637,-0.04953 1.64021,-0.148312 0.62088,-0.09878 1.22082,-0.243581 1.79937,-0.434082 0.58561,-0.190499 1.07232,-0.415906 1.46038,-0.676961 v -6.921541 h -5.49269 v 1.968355 h 3.36568 v 3.577043 c -0.28222,0.141112 -0.65295,0.268484 -1.11156,0.381372 -0.45861,0.105833 -0.97362,0.158646 -1.54512,0.158646 -1.16417,0 -2.1942,-0.215567 -3.09025,-0.645955 -0.889,-0.437445 -1.58748,-1.075519 -2.09548,-1.915129 -0.508,-0.83961 -0.76223,-1.859285 -0.76223,-3.058728 0,-0.853721 0.13065,-1.622965 0.39171,-2.307352 0.26811,-0.684389 0.64919,-1.26637 1.14308,-1.746147 0.49389,-0.486833 1.09002,-0.857044 1.78852,-1.111043 0.6985,-0.261056 1.4781,-0.391708 2.33888,-0.391708 0.66322,0 1.30561,0.0844 1.92649,0.253732 0.62795,0.169333 1.20993,0.423561 1.74615,0.762227 l 1.03715,-1.862935 c -0.47978,-0.331611 -0.98772,-0.592399 -1.52394,-0.782898 -0.52917,-0.197556 -1.06921,-0.338564 -1.61954,-0.42323 -0.55033,-0.08467 -1.09365,-0.127124 -1.62988,-0.127124 z m -106.37335,0.317293 v 14.816667 h 8.82686 v -2.179712 h -6.45594 V 13.581554 Z m 12.36566,0 v 14.816667 h 2.37039 V 13.581554 Z m 5.27461,0 5.69371,14.816667 h 2.52956 l 5.5454,-14.816667 h -2.6138 l -4.15943,11.652519 -4.32842,-11.652519 z m 16.66203,0 v 14.816667 h 9.64127 v -2.116667 h -7.27087 V 21.65703 h 6.22339 v -1.979207 h -6.22339 v -4.00079 h 7.20731 v -2.095479 z m 13.81518,0 v 14.816667 h 2.37091 v -5.97948 h 2.02107 l 4.09587,5.97948 h 2.86804 l -4.46587,-6.35 c 0.74083,-0.127 1.39306,-0.370357 1.9575,-0.730188 0.56445,-0.366889 1.00214,-0.83237 1.31258,-1.396814 0.3175,-0.564444 0.47594,-1.213391 0.47594,-1.947168 0,-0.90311 -0.20797,-1.68271 -0.62425,-2.338876 -0.40922,-0.656166 -0.9912,-1.160825 -1.74614,-1.513602 -0.74789,-0.359833 -1.63692,-0.540019 -2.66703,-0.540019 z m 39.40328,0 v 14.816667 h 8.82633 v -2.179712 h -6.45593 V 13.581554 Z m 28.39258,0 v 9.038208 c 0,1.150054 0.22213,2.18716 0.66663,3.111438 0.45155,0.917221 1.11845,1.644007 2.00039,2.180229 0.889,0.536221 1.99307,0.804602 3.31246,0.804602 1.32645,0 2.43052,-0.268381 3.31246,-0.804602 0.889,-0.543277 1.5559,-1.273344 2.0004,-2.190564 0.45155,-0.924278 0.67696,-1.958104 0.67696,-3.101103 v -9.038208 h -2.38125 v 9.017021 c 0,1.305277 -0.32448,2.279214 -0.97359,2.921268 -0.64911,0.634998 -1.52726,0.952397 -2.63498,0.952397 -1.10772,0 -1.98639,-0.317399 -2.6355,-0.952397 -0.64911,-0.642054 -0.97358,-1.615991 -0.97358,-2.921268 v -9.017021 z m 16.58762,0 v 14.816667 h 2.37091 V 13.581554 Z m 7.08432,0 v 14.816667 h 2.31769 V 17.507929 l 7.47189,10.890292 h 2.26498 V 13.581554 h -2.30735 v 10.763684 l -7.48223,-10.763684 z m -151.15666,1.926497 c 0.99483,0 1.89421,0.225407 2.69854,0.676962 0.80433,0.451555 1.43964,1.090146 1.90531,1.915645 0.47272,0.818443 0.709,1.781508 0.709,2.889229 0,0.825499 -0.13773,1.57731 -0.41289,2.254643 -0.26811,0.670277 -0.64212,1.248462 -1.1219,1.735295 -0.47978,0.479776 -1.04381,0.850503 -1.69292,1.11156 -0.64205,0.253998 -1.33725,0.380855 -2.08514,0.380855 -1.00189,0 -1.90507,-0.225924 -2.7094,-0.677478 -0.79727,-0.451556 -1.43207,-1.08635 -1.90479,-1.904793 -0.47273,-0.825499 -0.709,-1.79236 -0.709,-2.900082 0,-0.832555 0.13393,-1.583849 0.40204,-2.254126 0.27517,-0.677332 0.65245,-1.256034 1.13223,-1.735811 0.48683,-0.479777 1.05138,-0.846192 1.69344,-1.100191 0.64911,-0.261055 1.34759,-0.391708 2.09548,-0.391708 z m 87.52024,0 c 0.99483,0 1.89472,0.225407 2.69906,0.676962 0.80433,0.451555 1.43912,1.090146 1.90479,1.915645 0.47272,0.818443 0.709,1.781508 0.709,2.889229 0,0.825499 -0.13721,1.57731 -0.41238,2.254643 -0.26811,0.670277 -0.64212,1.248462 -1.12189,1.735295 -0.47978,0.479776 -1.04433,0.850503 -1.69344,1.11156 -0.64206,0.253998 -1.33726,0.380855 -2.08514,0.380855 -1.00189,0 -1.90455,-0.225924 -2.70888,-0.677478 -0.79728,-0.451556 -1.43259,-1.08635 -1.90531,-1.904793 -0.47272,-0.825499 -0.709,-1.79236 -0.709,-2.900082 0,-0.832555 0.13393,-1.583849 0.40204,-2.254126 0.27517,-0.677332 0.65297,-1.256034 1.13275,-1.735811 0.48683,-0.479777 1.05086,-0.846192 1.69292,-1.100191 0.64911,-0.261055 1.34759,-0.391708 2.09548,-0.391708 z m -25.46047,0.08475 h 3.00551 c 0.95955,0 1.67546,0.21833 2.14818,0.655774 0.47978,0.437444 0.71986,1.04773 0.71986,1.830896 0,0.761999 -0.26838,1.347777 -0.8046,1.756998 -0.52917,0.409222 -1.27339,0.613916 -2.23294,0.613916 h -2.83601 z m 61.42313,18.321879 c -0.11101,0 -0.20694,0.03669 -0.28784,0.110071 -0.0809,0.0715 -0.12144,0.164282 -0.12144,0.279052 0,0.116652 0.0405,0.210657 0.12144,0.282154 0.0809,0.0715 0.17683,0.107487 0.28784,0.107487 0.11101,0 0.20693,-0.03599 0.28784,-0.107487 0.0809,-0.0715 0.12144,-0.165502 0.12144,-0.282154 0,-0.11477 -0.0405,-0.207556 -0.12144,-0.279052 -0.0809,-0.07338 -0.17683,-0.110071 -0.28784,-0.110071 z m 24.83001,0 c -0.11101,0 -0.20694,0.03669 -0.28784,0.110071 -0.0809,0.0715 -0.12144,0.164282 -0.12144,0.279052 0,0.116652 0.0405,0.210657 0.12144,0.282154 0.0809,0.0715 0.17683,0.107487 0.28784,0.107487 0.111,0 0.20693,-0.03599 0.28784,-0.107487 0.0809,-0.0715 0.12143,-0.165502 0.12143,-0.282154 0,-0.11477 -0.0405,-0.207556 -0.12143,-0.279052 -0.0809,-0.07338 -0.17684,-0.110071 -0.28784,-0.110071 z m -48.34899,0.0083 v 4.063835 h 0.62115 v -1.571997 c 0,-0.146756 0.0302,-0.275533 0.0904,-0.38654 0.0621,-0.111008 0.14649,-0.196625 0.25374,-0.256832 0.10724,-0.06209 0.23077,-0.09302 0.37,-0.09302 0.21073,0.0019 0.3769,0.06374 0.49919,0.186036 0.1223,0.122296 0.18346,0.281299 0.18346,0.476973 v 1.645378 h 0.62115 v -1.823145 c 0,-0.174978 -0.0425,-0.343071 -0.12713,-0.504879 -0.0847,-0.161807 -0.21152,-0.293725 -0.38085,-0.395324 -0.16934,-0.103482 -0.38111,-0.15503 -0.63511,-0.15503 -0.19379,0 -0.37847,0.04316 -0.55345,0.129708 -0.12081,0.05846 -0.22483,0.145887 -0.32143,0.246497 v -1.561662 z m -13.79812,0.112655 v 3.95118 h 0.57826 l -0.008,-2.901632 1.26659,2.049487 h 0.46251 l 1.22163,-2.01383 -0.008,2.865975 h 0.61805 v -3.95118 h -0.601 l -1.43144,2.420007 -1.48673,-2.420007 z m 49.05695,0 v 3.95118 h 2.5709 v -0.564307 h -1.9389 v -1.233516 h 1.65933 v -0.527617 h -1.65933 v -1.066601 h 1.92185 v -0.559139 z m -26.75031,0.341581 v 0.815971 h -0.61236 v 0.513663 h 0.61236 v 1.402499 c 0,0.325496 0.0818,0.566976 0.24547,0.72502 0.16369,0.158044 0.38244,0.237195 0.65526,0.237195 0.111,0 0.21794,-0.01415 0.32142,-0.04237 0.10537,-0.02634 0.19867,-0.05989 0.27957,-0.101286 l -0.11007,-0.502811 c -0.047,0.02446 -0.0998,0.04438 -0.15813,0.05943 -0.0583,0.01505 -0.12018,0.02274 -0.18603,0.02274 -0.13547,0 -0.241,-0.03983 -0.31626,-0.118855 -0.0734,-0.0809 -0.11007,-0.218772 -0.11007,-0.414445 V 35.70686 h 0.77618 v -0.513663 h -0.77618 v -0.816013 z m -117.17837,0.464571 -1.6583,2.872176 h 3.03341 l 1.65829,-2.872176 z m 6.35,0 -1.6583,2.872176 h 3.03341 l 1.65829,-2.872176 z m 6.35,0 -1.6583,2.872176 h 3.03341 l 1.6583,-2.872176 z m 6.35,0 -1.6583,2.872176 h 3.03341 l 1.65829,-2.872176 z m 6.35,0 -1.6583,2.872176 h 3.03341 l 1.65829,-2.872176 z m 6.35,0 -1.6583,2.872176 h 3.03341 l 1.6583,-2.872176 z m 6.35,0 -1.6583,2.872176 h 3.03341 l 1.65829,-2.872176 z m 6.35,0 -1.6583,2.872176 h 3.03341 l 1.65829,-2.872176 z m 6.35,0 -1.6583,2.872176 h 3.03341 l 1.6583,-2.872176 z m 6.35,0 -1.6583,2.872176 h 3.03341 l 1.65829,-2.872176 z m 6.35,0 -1.6583,2.872176 h 3.03341 l 1.65829,-2.872176 z m 6.35,0 -1.6583,2.872176 h 3.03341 l 1.65829,-2.872176 z m 6.35,0 -1.6583,2.872176 h 3.03341 l 1.6583,-2.872176 z m 6.35,0 -1.6583,2.872176 h 3.03341 l 1.65829,-2.872176 z m 6.35,0 -1.6583,2.872176 h 3.03341 l 1.65829,-2.872176 z m 25.13903,0.238228 c -0.17498,0 -0.35722,0.02446 -0.54725,0.07338 -0.19003,0.04892 -0.37279,0.132614 -0.54777,0.251147 l 0.17518,0.457337 c 0.12982,-0.09407 0.26629,-0.162915 0.40928,-0.206189 0.14299,-0.04516 0.28784,-0.0677 0.4346,-0.0677 0.15992,0 0.29325,0.02568 0.40049,0.07648 0.10724,0.0508 0.1871,0.122264 0.23978,0.214457 0.0527,0.09031 0.0791,0.19725 0.0791,0.321427 v 0.107487 c -0.29727,-0.02317 -0.56399,-0.02742 -0.78445,-0.0031 -0.25588,0.02634 -0.46572,0.08033 -0.62941,0.16123 -0.16181,0.0809 -0.28098,0.183297 -0.35812,0.307475 -0.0771,0.122296 -0.11576,0.259461 -0.11576,0.411861 0,0.180622 0.04,0.337704 0.12093,0.471289 0.0828,0.131704 0.19792,0.234614 0.34468,0.307992 0.14675,0.0715 0.31677,0.10697 0.51056,0.10697 0.20696,0 0.39427,-0.03547 0.56172,-0.10697 0.16746,-0.0715 0.29815,-0.174407 0.39223,-0.307992 v 0.330213 h 0.55862 v -1.792165 c 0,-0.250237 -0.0496,-0.456945 -0.14934,-0.620634 -0.0997,-0.16557 -0.24265,-0.2891 -0.42892,-0.370003 -0.18438,-0.08279 -0.40646,-0.124024 -0.66611,-0.124024 z m 24.91166,0 c -0.21449,0 -0.40372,0.03669 -0.56741,0.110071 -0.16369,0.07338 -0.29246,0.175069 -0.38654,0.304891 -0.0922,0.127941 -0.13849,0.275415 -0.13849,0.442867 0,0.238948 0.0792,0.426256 0.23719,0.561723 0.15993,0.133585 0.41608,0.237197 0.76792,0.310575 0.24459,0.05644 0.41006,0.111133 0.49661,0.163815 0.0884,0.0508 0.13229,0.130652 0.13229,0.239778 0,0.114771 -0.0503,0.204231 -0.15193,0.268201 -0.1016,0.06397 -0.24383,0.0956 -0.42633,0.0956 -0.15804,0 -0.31897,-0.02901 -0.48266,-0.08733 -0.16181,-0.05833 -0.30788,-0.138179 -0.4377,-0.239779 l -0.23409,0.454236 c 0.13735,0.111008 0.30666,0.199765 0.50798,0.265617 0.20132,0.06585 0.41763,0.0987 0.64905,0.0987 0.22766,0 0.4272,-0.03669 0.59842,-0.110071 0.17309,-0.07338 0.30763,-0.176288 0.40359,-0.307991 0.096,-0.133585 0.14418,-0.289448 0.14418,-0.468189 0,-0.233303 -0.0784,-0.416066 -0.23461,-0.54777 -0.15617,-0.131703 -0.41494,-0.236721 -0.77618,-0.315743 -0.22954,-0.05268 -0.39117,-0.105448 -0.48525,-0.15813 -0.0941,-0.05268 -0.14107,-0.134456 -0.14107,-0.245463 0,-0.107244 0.0489,-0.19094 0.14676,-0.251147 0.0997,-0.06209 0.22849,-0.09354 0.38654,-0.09354 0.1016,0 0.20329,0.01345 0.30489,0.03979 0.10348,0.02446 0.20133,0.05923 0.29352,0.104387 0.0922,0.04516 0.17327,0.09862 0.24288,0.160713 l 0.22014,-0.457336 c -0.13546,-0.107244 -0.29569,-0.189721 -0.48007,-0.248047 -0.18439,-0.06021 -0.38079,-0.09043 -0.58963,-0.09043 z m -17.2806,0.02532 c -0.1731,0 -0.33524,0.03599 -0.48576,0.107487 -0.15052,0.06961 -0.27808,0.191925 -0.38344,0.366903 v -0.38654 h -0.62115 v 2.793628 h 0.62115 v -1.520838 c 0,-0.227659 0.0702,-0.407281 0.21136,-0.538985 0.14111,-0.133585 0.32003,-0.200504 0.5364,-0.200504 0.0583,0 0.11634,0.0045 0.17467,0.01395 0.0583,0.0094 0.11615,0.02286 0.1726,0.03979 l 0.0817,-0.640788 c -0.047,-0.01129 -0.096,-0.01968 -0.14676,-0.02532 -0.0508,-0.0056 -0.10427,-0.0088 -0.16072,-0.0088 z m 51.38084,0 c -0.17309,0 -0.33524,0.03599 -0.48575,0.107487 -0.15052,0.06961 -0.27808,0.191925 -0.38344,0.366903 v -0.38654 h -0.62115 v 2.793628 h 0.62115 v -1.520838 c 0,-0.227659 0.0702,-0.407281 0.21135,-0.538985 0.14111,-0.133585 0.32003,-0.200504 0.5364,-0.200504 0.0583,0 0.11686,0.0045 0.17519,0.01395 0.0583,0.0094 0.11564,0.02286 0.17208,0.03979 l 0.0816,-0.640788 c -0.047,-0.01129 -0.096,-0.01968 -0.14676,-0.02532 -0.0508,-0.0056 -0.10427,-0.0088 -0.16072,-0.0088 z m -71.01272,0.0031 c -0.2126,0 -0.409,0.03669 -0.58962,0.110071 -0.17874,0.07338 -0.33512,0.176474 -0.46871,0.310059 -0.13359,0.133585 -0.2372,0.291886 -0.31057,0.474389 -0.0734,0.180622 -0.11008,0.37824 -0.11008,0.592729 0,0.293511 0.0631,0.551065 0.18914,0.77308 0.12794,0.222014 0.30564,0.39517 0.5333,0.519348 0.22766,0.122296 0.4922,0.183451 0.79323,0.183451 0.12983,0 0.26437,-0.01415 0.4036,-0.04237 0.13923,-0.02634 0.27306,-0.06496 0.40101,-0.115755 0.12794,-0.05268 0.2368,-0.115758 0.32711,-0.189136 l -0.23978,-0.445967 c -0.12042,0.09407 -0.25496,0.166055 -0.40359,0.214974 -0.14676,0.04704 -0.29929,0.07028 -0.45734,0.07028 -0.19567,0 -0.36569,-0.03477 -0.51056,-0.104387 -0.143,-0.06961 -0.25308,-0.16676 -0.33021,-0.290938 -0.0772,-0.126059 -0.11384,-0.272315 -0.11008,-0.439766 h 2.22932 c 0.0339,-0.229541 0.0255,-0.442531 -0.0253,-0.638204 -0.0489,-0.197556 -0.13383,-0.369493 -0.25424,-0.516248 -0.11854,-0.146755 -0.26793,-0.260678 -0.44856,-0.341581 -0.18062,-0.08279 -0.38662,-0.124024 -0.61805,-0.124024 z m 4.1951,0 c -0.2239,0 -0.43183,0.03669 -0.62374,0.110071 -0.19003,0.07338 -0.3555,0.176474 -0.49661,0.310059 -0.14111,0.133585 -0.25049,0.291183 -0.32763,0.471806 -0.0771,0.17874 -0.11575,0.375139 -0.11575,0.589628 0,0.284103 0.065,0.537814 0.19482,0.76171 0.1317,0.222015 0.31254,0.398311 0.54208,0.528133 0.22955,0.127941 0.49094,0.19172 0.78445,0.19172 0.19191,0 0.37922,-0.03215 0.56173,-0.09612 0.1825,-0.06397 0.34797,-0.152211 0.49661,-0.2651 l -0.29611,-0.471289 c -0.0828,0.08467 -0.1864,0.153507 -0.31058,0.206189 -0.12417,0.0508 -0.25609,0.07596 -0.39532,0.07596 -0.29351,0 -0.5259,-0.08248 -0.69712,-0.248047 -0.16933,-0.16557 -0.25373,-0.394634 -0.25373,-0.686263 0,-0.195674 0.0386,-0.361846 0.11576,-0.499194 0.079,-0.13923 0.1891,-0.245466 0.33021,-0.318844 0.14111,-0.07338 0.3092,-0.110071 0.50488,-0.110071 0.12606,0 0.24453,0.0187 0.35553,0.05633 0.11289,0.03763 0.21266,0.09494 0.29921,0.172082 l 0.29921,-0.473873 c -0.13547,-0.103481 -0.28416,-0.180008 -0.44597,-0.228926 -0.15993,-0.0508 -0.33379,-0.07596 -0.52193,-0.07596 z m 18.33325,0 c -0.22014,0 -0.4223,0.03932 -0.60669,0.118339 -0.18438,0.07902 -0.34531,0.18718 -0.48265,0.324528 -0.13547,0.137348 -0.24101,0.29565 -0.31626,0.47439 -0.0734,0.176859 -0.11007,0.36487 -0.11007,0.564307 0,0.269051 0.065,0.516296 0.19481,0.742073 0.12983,0.223896 0.30875,0.403519 0.53641,0.538985 0.22954,0.133585 0.49023,0.200505 0.78186,0.200505 0.22201,0 0.42488,-0.03932 0.60927,-0.118339 0.18438,-0.07902 0.3446,-0.18718 0.48007,-0.324528 0.13547,-0.137348 0.23978,-0.295649 0.31316,-0.47439 0.0753,-0.17874 0.11317,-0.366751 0.11317,-0.564306 0,-0.269052 -0.065,-0.515594 -0.19482,-0.73949 -0.12982,-0.225778 -0.30944,-0.4054 -0.53898,-0.538985 -0.22766,-0.135467 -0.48765,-0.203089 -0.77928,-0.203089 z m 4.4943,0 c -0.16558,0 -0.32528,0.03477 -0.47956,0.104387 -0.15428,0.06773 -0.29004,0.179734 -0.4067,0.335897 v -0.355534 h -0.62063 v 2.793628 h 0.62063 v -1.571997 c 0,-0.146756 0.0309,-0.274314 0.093,-0.38344 0.0621,-0.111007 0.147,-0.197843 0.25425,-0.259932 0.10912,-0.06209 0.23336,-0.09302 0.37259,-0.09302 0.2126,0 0.37807,0.05994 0.49661,0.180351 0.12041,0.120415 0.18035,0.280637 0.18035,0.480074 v 1.647962 h 0.62115 v -1.840198 c 0,-0.169333 -0.0412,-0.333584 -0.12403,-0.49351 -0.0809,-0.159926 -0.20513,-0.290624 -0.37258,-0.392224 -0.16745,-0.1016 -0.37923,-0.152446 -0.6351,-0.152446 z m 6.4766,0 c -0.22389,0 -0.43182,0.03669 -0.62373,0.110071 -0.19003,0.07338 -0.3555,0.176474 -0.49661,0.310059 -0.14111,0.133585 -0.25049,0.291183 -0.32763,0.471806 -0.0771,0.17874 -0.11576,0.375139 -0.11576,0.589628 0,0.284103 0.065,0.537814 0.19482,0.76171 0.13171,0.222015 0.31255,0.398311 0.54209,0.528133 0.22954,0.127941 0.49094,0.19172 0.78445,0.19172 0.19191,0 0.37922,-0.03215 0.56172,-0.09612 0.1825,-0.06397 0.34797,-0.152211 0.49661,-0.2651 l -0.29662,-0.471289 c -0.0828,0.08467 -0.18588,0.153507 -0.31006,0.206189 -0.12418,0.0508 -0.2561,0.07596 -0.39533,0.07596 -0.29351,0 -0.5259,-0.08248 -0.69711,-0.248047 -0.16933,-0.16557 -0.25373,-0.394634 -0.25373,-0.686263 0,-0.195674 0.0386,-0.361846 0.11575,-0.499194 0.079,-0.13923 0.1891,-0.245466 0.33022,-0.318844 0.14111,-0.07338 0.3092,-0.110071 0.50487,-0.110071 0.12606,0 0.24453,0.0187 0.35554,0.05633 0.11289,0.03763 0.21266,0.09494 0.2992,0.172082 l 0.29921,-0.473873 c -0.13547,-0.103481 -0.28416,-0.180008 -0.44597,-0.228926 -0.15992,-0.0508 -0.33378,-0.07596 -0.52193,-0.07596 z m 14.1242,0 c -0.16557,0 -0.32527,0.03477 -0.47955,0.104387 -0.15428,0.06773 -0.29005,0.179734 -0.4067,0.335897 v -0.355534 h -0.62063 v 2.793628 h 0.62063 v -1.571997 c 0,-0.146756 0.0309,-0.274314 0.093,-0.38344 0.0621,-0.111007 0.147,-0.197843 0.25425,-0.259932 0.10912,-0.06209 0.23336,-0.09302 0.37259,-0.09302 0.2126,0 0.37807,0.05994 0.49661,0.180351 0.12041,0.120415 0.18035,0.280637 0.18035,0.480074 v 1.647962 h 0.62115 v -1.840198 c 0,-0.169333 -0.0412,-0.333584 -0.12403,-0.49351 -0.0809,-0.159926 -0.20513,-0.290624 -0.37258,-0.392224 -0.16745,-0.1016 -0.37923,-0.152446 -0.63511,-0.152446 z m 3.961,0 c -0.23142,0 -0.44057,0.04386 -0.62683,0.132292 -0.18439,0.08843 -0.33116,0.208116 -0.44029,0.358634 -0.10724,0.150519 -0.16071,0.319129 -0.16071,0.505396 0,0.186266 0.0535,0.35436 0.16071,0.504879 0.0981,0.137632 0.23277,0.246043 0.39533,0.331762 -0.0323,0.01655 -0.0729,0.02764 -0.1018,0.04651 -0.0847,0.05456 -0.15037,0.11764 -0.19741,0.189136 -0.0451,0.06961 -0.0677,0.143703 -0.0677,0.222725 0,0.09219 0.0264,0.173967 0.0791,0.245464 0.0546,0.0715 0.13704,0.135791 0.24805,0.192236 -0.14864,0.0301 -0.27479,0.07589 -0.37827,0.137976 -0.1016,0.06021 -0.17832,0.132891 -0.231,0.217558 -0.0508,0.08467 -0.0765,0.174828 -0.0765,0.270784 0,0.120415 0.0309,0.229792 0.093,0.327629 0.0621,0.09784 0.15155,0.181533 0.2682,0.251147 0.11853,0.06961 0.26146,0.122382 0.42891,0.15813 0.16746,0.03763 0.35598,0.05633 0.56483,0.05633 0.2333,0 0.44577,-0.02446 0.63768,-0.07338 0.19192,-0.04892 0.35668,-0.116541 0.49403,-0.203089 0.13923,-0.08655 0.24547,-0.189458 0.31885,-0.307991 0.0752,-0.116652 0.11265,-0.243508 0.11265,-0.380855 0,-0.161808 -0.0451,-0.29513 -0.13539,-0.400493 -0.0884,-0.105363 -0.21651,-0.187654 -0.38396,-0.245979 -0.16557,-0.05833 -0.36581,-0.09642 -0.601,-0.115239 l -0.47955,-0.03669 c -0.13359,-0.01129 -0.2372,-0.03121 -0.31058,-0.05943 -0.0734,-0.0301 -0.11007,-0.07711 -0.11007,-0.141077 0,-0.04892 0.0213,-0.09067 0.0646,-0.12454 0.0451,-0.03575 0.10823,-0.06283 0.18913,-0.08165 0.015,-0.0038 0.0381,-0.0022 0.0543,-0.0052 0.0633,0.0073 0.12452,0.01912 0.19172,0.01912 0.23331,0 0.44194,-0.04386 0.62632,-0.132292 0.18439,-0.09031 0.32994,-0.2107 0.43718,-0.361218 0.10725,-0.150518 0.16123,-0.31791 0.16123,-0.502295 0,-0.148502 -0.0448,-0.282464 -0.1142,-0.408244 l 0.58549,0.01034 0.006,-0.513663 -1.09193,0.04289 c -0.18121,-0.08442 -0.38366,-0.127641 -0.60978,-0.127641 z m 6.92774,0 c -0.16557,0 -0.32527,0.03477 -0.47955,0.104387 -0.15428,0.06773 -0.29004,0.179734 -0.4067,0.335897 v -0.355534 h -0.62063 v 2.793628 h 0.62063 v -1.571997 c 0,-0.146756 0.0315,-0.274314 0.0935,-0.38344 0.0621,-0.111007 0.14649,-0.197843 0.25373,-0.259932 0.10913,-0.06209 0.23336,-0.09302 0.37259,-0.09302 0.2126,0 0.37807,0.05994 0.49661,0.180351 0.12041,0.120415 0.18086,0.280637 0.18086,0.480074 v 1.647962 h 0.62064 v -1.840198 c 0,-0.169333 -0.0412,-0.333584 -0.12402,-0.49351 -0.0809,-0.159926 -0.20514,-0.290624 -0.37259,-0.392224 -0.16745,-0.1016 -0.37922,-0.152446 -0.63511,-0.152446 z m 4.0566,0 c -0.2126,0 -0.409,0.03669 -0.58962,0.110071 -0.17874,0.07338 -0.33512,0.176474 -0.46871,0.310059 -0.13358,0.133585 -0.23668,0.291886 -0.31006,0.474389 -0.0734,0.180622 -0.11007,0.37824 -0.11007,0.592729 0,0.293511 0.0631,0.551065 0.18914,0.77308 0.12794,0.222014 0.30564,0.39517 0.5333,0.519348 0.22766,0.122296 0.49168,0.183451 0.79272,0.183451 0.12982,0 0.26436,-0.01415 0.40359,-0.04237 0.13923,-0.02634 0.27307,-0.06496 0.40101,-0.115755 0.12794,-0.05268 0.2368,-0.115758 0.32711,-0.189136 l -0.23978,-0.445967 c -0.12041,0.09407 -0.25496,0.166055 -0.40359,0.214974 -0.14676,0.04704 -0.29929,0.07028 -0.45734,0.07028 -0.19567,0 -0.36569,-0.03477 -0.51056,-0.104387 -0.14299,-0.06961 -0.25307,-0.16676 -0.33021,-0.290938 -0.0772,-0.126059 -0.11384,-0.272315 -0.11008,-0.439766 h 2.22933 c 0.0339,-0.229541 0.0255,-0.442531 -0.0253,-0.638204 -0.0489,-0.197556 -0.13331,-0.369493 -0.25373,-0.516248 -0.11853,-0.146755 -0.26844,-0.260678 -0.44906,-0.341581 -0.18063,-0.08279 -0.38663,-0.124024 -0.61806,-0.124024 z m 4.11035,0 c -0.21261,0 -0.40901,0.03669 -0.58963,0.110071 -0.17874,0.07338 -0.33512,0.176474 -0.46871,0.310059 -0.13358,0.133585 -0.23668,0.291886 -0.31005,0.474389 -0.0734,0.180622 -0.11007,0.37824 -0.11007,0.592729 0,0.293511 0.0631,0.551065 0.18913,0.77308 0.12794,0.222014 0.30564,0.39517 0.5333,0.519348 0.22766,0.122296 0.49168,0.183451 0.79272,0.183451 0.12982,0 0.26436,-0.01415 0.40359,-0.04237 0.13923,-0.02634 0.27307,-0.06496 0.40101,-0.115755 0.12794,-0.05268 0.2368,-0.115758 0.32711,-0.189136 l -0.23978,-0.445967 c -0.12041,0.09407 -0.25495,0.166055 -0.40359,0.214974 -0.14675,0.04704 -0.29929,0.07028 -0.45734,0.07028 -0.19567,0 -0.36569,-0.03477 -0.51056,-0.104387 -0.14299,-0.06961 -0.25307,-0.16676 -0.33021,-0.290938 -0.0771,-0.126059 -0.11383,-0.272315 -0.11007,-0.439766 h 2.22932 c 0.0339,-0.229541 0.0255,-0.442531 -0.0253,-0.638204 -0.0489,-0.197556 -0.13332,-0.369493 -0.25373,-0.516248 -0.11854,-0.146755 -0.26845,-0.260678 -0.44907,-0.341581 -0.18062,-0.08279 -0.38663,-0.124024 -0.61805,-0.124024 z m -36.83858,0.08475 v 2.793628 h 0.62063 v -2.793628 z m 24.82949,0 v 2.793628 h 0.62115 v -2.793628 z m -3.0856,0.377754 c 0.19379,0 0.35158,0.05014 0.47388,0.149862 0.12417,0.09784 0.18603,0.225912 0.18603,0.383956 0,0.105363 -0.0278,0.198149 -0.0842,0.279053 -0.0565,0.07902 -0.13489,0.141396 -0.23461,0.186552 -0.0997,0.04327 -0.21313,0.0646 -0.34107,0.0646 -0.19379,0 -0.35279,-0.04892 -0.47697,-0.146761 -0.1223,-0.09972 -0.18345,-0.227276 -0.18345,-0.383439 0,-0.105363 0.0278,-0.197964 0.0842,-0.276986 0.0564,-0.0809 0.13367,-0.14398 0.23151,-0.189135 0.0997,-0.04516 0.21486,-0.0677 0.34468,-0.0677 z m -51.5984,0.02274 c 0.23707,0 0.41931,0.06045 0.54725,0.180868 0.12983,0.120414 0.19797,0.285884 0.20361,0.49661 h -1.58336 c 0.0226,-0.210726 0.10889,-0.376196 0.25941,-0.49661 0.1524,-0.120415 0.34355,-0.180868 0.57309,-0.180868 z m 62.56879,0 c 0.23707,0 0.41983,0.06045 0.54777,0.180868 0.12982,0.120414 0.19745,0.285884 0.20309,0.49661 h -1.58337 c 0.0226,-0.210726 0.1089,-0.376196 0.25942,-0.49661 0.1524,-0.120415 0.34355,-0.180868 0.57309,-0.180868 z m 4.11035,0 c 0.23706,0 0.41983,0.06045 0.54777,0.180868 0.12982,0.120414 0.19744,0.285884 0.20308,0.49661 h -1.58336 c 0.0226,-0.210726 0.1089,-0.376196 0.25941,-0.49661 0.1524,-0.120415 0.34356,-0.180868 0.5731,-0.180868 z m -44.13943,0.06511 c 0.1731,0 0.32634,0.0374 0.45992,0.112655 0.13547,0.07526 0.2417,0.183417 0.31884,0.324528 0.0771,0.139229 0.11576,0.303997 0.11576,0.494027 0,0.190029 -0.0386,0.354797 -0.11576,0.494026 -0.0771,0.13923 -0.18337,0.247388 -0.31884,0.324528 -0.13358,0.07526 -0.28682,0.112655 -0.45992,0.112655 -0.17121,0 -0.32445,-0.03739 -0.45992,-0.112655 -0.13358,-0.07714 -0.23912,-0.185298 -0.31626,-0.324528 -0.0771,-0.139229 -0.11575,-0.303997 -0.11575,-0.494026 0,-0.19003 0.0374,-0.354798 0.11265,-0.494027 0.0771,-0.141111 0.18267,-0.249269 0.31626,-0.324528 0.13547,-0.07526 0.28993,-0.112655 0.46302,-0.112655 z m -10.39213,1.04128 c 0.14254,-0.0044 0.32529,0.01425 0.51056,0.03462 v 0.208256 c 0,0.129822 -0.0335,0.242525 -0.10128,0.33848 -0.0658,0.09596 -0.15653,0.170044 -0.2713,0.222726 -0.11477,0.05268 -0.24425,0.07906 -0.38913,0.07906 -0.16933,0 -0.30317,-0.03669 -0.40101,-0.110071 -0.0959,-0.07338 -0.14366,-0.177693 -0.14366,-0.313159 0,-0.08655 0.0271,-0.162558 0.0816,-0.22841 0.0564,-0.06773 0.14277,-0.12172 0.25942,-0.161231 0.11853,-0.04139 0.27037,-0.06463 0.45475,-0.07028 z m 39.20794,1.292428 0.51367,0.03979 c 0.22013,0.01505 0.38368,0.05053 0.49092,0.10697 0.10725,0.05644 0.16072,0.135595 0.16072,0.237195 0,0.133585 -0.0806,0.241743 -0.24237,0.324528 -0.15992,0.08467 -0.38008,0.127124 -0.66042,0.127124 -0.1731,0 -0.32301,-0.0187 -0.44907,-0.05633 -0.12606,-0.03575 -0.22269,-0.08659 -0.29042,-0.152446 -0.0677,-0.06585 -0.1018,-0.142378 -0.1018,-0.228926 0,-0.0715 0.0225,-0.135276 0.0677,-0.19172 0.0452,-0.05644 0.11138,-0.102745 0.19792,-0.138493 0.0884,-0.03575 0.19275,-0.05829 0.31316,-0.0677 z" /><text
       xml:space="preserve"
       transform="matrix(0.26458333,0,0,0.26458333,-74.146084,-423.60536)"
       id="text14"
       style="font-style:normal;font-variant:normal;font-weight:normal;font-stretch:normal;font-size:146.667px;line-height:1;font-family:Outfit;-inkscape-font-specification:Outfit;text-align:center;letter-spacing:1px;word-spacing:0px;white-space:pre;shape-inside:url(#rect14);display:inline;fill:#0d1117;fill-opacity:1;stroke:none;stroke-width:1.51181;stroke-linecap:round;stroke-linejoin:round;paint-order:fill markers stroke"><tspan
         x="-570.65465"
         y="184.34967"
         id="tspan2460">Code Art Tech</tspan></text><text
       xml:space="preserve"
       transform="matrix(0.26458333,0,0,0.26458333,-74.146084,-460.64705)"
       id="text15"
       style="font-style:normal;font-variant:normal;font-weight:normal;font-stretch:normal;font-size:146.667px;line-height:1;font-family:Poppins;-inkscape-font-specification:Poppins;text-align:center;letter-spacing:1px;word-spacing:0px;white-space:pre;shape-inside:url(#rect15);display:inline;fill:#0d1117;fill-opacity:1;stroke:none;stroke-width:1.51181;stroke-linecap:round;stroke-linejoin:round;paint-order:fill markers stroke"><tspan
         x="-570.65465"
         y="184.34967"
         id="tspan2462">Code Art Tech</tspan></text><text
       xml:space="preserve"
       transform="matrix(0.26458333,0,0,0.26458333,-74.146084,-492.39707)"
       id="text16"
       style="font-style:normal;font-variant:normal;font-weight:normal;font-stretch:normal;font-size:146.667px;line-height:1;font-family:Prompt;-inkscape-font-specification:Prompt;text-align:center;letter-spacing:1px;word-spacing:0px;white-space:pre;shape-inside:url(#rect16);display:inline;fill:#0d1117;fill-opacity:1;stroke:none;stroke-width:1.51181;stroke-linecap:round;stroke-linejoin:round;paint-order:fill markers stroke"><tspan
         x="-570.65465"
         y="184.34967"
         id="tspan2464">Code Art Tech</tspan></text><text
       xml:space="preserve"
       transform="matrix(0.26458333,0,0,0.26458333,-74.146084,-524.14709)"
       id="text17"
       style="font-style:normal;font-variant:normal;font-weight:normal;font-stretch:normal;font-size:146.667px;line-height:1;font-family:'Space Mono';-inkscape-font-specification:'Space Mono';text-align:center;letter-spacing:1px;word-spacing:0px;white-space:pre;shape-inside:url(#rect17);display:inline;fill:#0d1117;fill-opacity:1;stroke:none;stroke-width:1.51181;stroke-linecap:round;stroke-linejoin:round;paint-order:fill markers stroke"><tspan
         x="-570.65465"
         y="184.34967"
         id="tspan2466">Code Art Tech</tspan></text><text
       xml:space="preserve"
       transform="matrix(0.26458333,0,0,0.26458333,-74.146084,-564.36395)"
       id="text18"
       style="font-style:normal;font-variant:normal;font-weight:normal;font-stretch:normal;font-size:146.667px;line-height:1;font-family:Ubuntu;-inkscape-font-specification:Ubuntu;text-align:center;letter-spacing:1px;word-spacing:0px;white-space:pre;shape-inside:url(#rect18);display:inline;fill:#0d1117;fill-opacity:1;stroke:none;stroke-width:1.51181;stroke-linecap:round;stroke-linejoin:round;paint-order:fill markers stroke"><tspan
         x="-556.94126"
         y="191.1734"
         id="tspan2468">Code Art Tech</tspan></text><text
       xml:space="preserve"
       transform="matrix(0.26458333,0,0,0.26458333,-74.146084,-601.93481)"
       id="text19"
       style="font-style:normal;font-variant:normal;font-weight:normal;font-stretch:normal;font-size:146.667px;line-height:1;font-family:Verdana;-inkscape-font-specification:Verdana;text-align:center;letter-spacing:1px;word-spacing:0px;white-space:pre;shape-inside:url(#rect19);display:inline;fill:#0d1117;fill-opacity:1;stroke:none;stroke-width:1.51181;stroke-linecap:round;stroke-linejoin:round;paint-order:fill markers stroke"><tspan
         x="-570.65465"
         y="184.34967"
         id="tspan2470">Code Art Tech</tspan></text><text
       xml:space="preserve"
       transform="scale(0.26458333)"
       id="text93"
       style="font-style:normal;font-variant:normal;font-weight:normal;font-stretch:normal;font-size:21.3333px;line-height:1;font-family:Geologica;-inkscape-font-specification:Geologica;text-align:justify;letter-spacing:1px;word-spacing:0px;white-space:pre;shape-inside:url(#rect94);fill:none;fill-opacity:1;stroke:#ffffff;stroke-width:6.04724;stroke-dasharray:none;paint-order:fill markers stroke" /></g></svg>
