<?xml version="1.0" encoding="UTF-8" standalone="no"?>
<!-- Created with Inkscape (http://www.inkscape.org/) -->

<svg
   width="210.39999mm"
   height="42.733337mm"
   viewBox="0 0 210.39999 42.733337"
   version="1.1"
   id="svg1"
   xml:space="preserve"
   inkscape:version="1.3.2 (091e20e, 2023-11-25, custom)"
   sodipodi:docname="header.svg"
   xmlns:inkscape="http://www.inkscape.org/namespaces/inkscape"
   xmlns:sodipodi="http://sodipodi.sourceforge.net/DTD/sodipodi-0.dtd"
   xmlns="http://www.w3.org/2000/svg"
   xmlns:svg="http://www.w3.org/2000/svg"><sodipodi:namedview
     id="namedview1"
     pagecolor="#ffffff"
     bordercolor="#000000"
     borderopacity="0.25"
     inkscape:showpageshadow="2"
     inkscape:pageopacity="0.0"
     inkscape:pagecheckerboard="0"
     inkscape:deskcolor="#d1d1d1"
     inkscape:document-units="mm"
     inkscape:zoom="0.68245077"
     inkscape:cx="619.82493"
     inkscape:cy="125.28376"
     inkscape:window-width="1366"
     inkscape:window-height="745"
     inkscape:window-x="-8"
     inkscape:window-y="-8"
     inkscape:window-maximized="1"
     inkscape:current-layer="layer1"
     showgrid="true"
     showguides="true"><inkscape:grid
       id="grid36"
       units="px"
       originx="0.2"
       originy="0.2"
       spacingx="0.26458333"
       spacingy="0.26458334"
       empcolor="#0099e5"
       empopacity="0.30196078"
       color="#0099e5"
       opacity="0.14901961"
       empspacing="5"
       dotted="false"
       gridanglex="30"
       gridanglez="30"
       visible="true" /></sodipodi:namedview><defs
     id="defs1"><rect
       x="185.26146"
       y="640.9776"
       width="116.29551"
       height="68.28981"
       id="rect2" /><rect
       x="233.34715"
       y="662.14111"
       width="57.222073"
       height="60.194649"
       id="rect94" /><rect
       x="-771.8429"
       y="69.235077"
       width="638.50122"
       height="615.42291"
       id="rect4" /><rect
       x="-771.8429"
       y="69.235077"
       width="1042.3988"
       height="216.57401"
       id="rect5" /><rect
       x="-771.8429"
       y="69.235077"
       width="1042.3988"
       height="216.57401"
       id="rect6" /><rect
       x="-771.8429"
       y="69.235077"
       width="1367.2717"
       height="162.42851"
       id="rect7" /><rect
       x="-771.8429"
       y="69.235077"
       width="1367.2717"
       height="162.42851"
       id="rect8" /><rect
       x="-771.8429"
       y="69.235077"
       width="1367.2717"
       height="162.42851"
       id="rect9" /><rect
       x="-771.8429"
       y="69.235077"
       width="1367.2717"
       height="162.42851"
       id="rect10" /><rect
       x="-771.8429"
       y="69.235077"
       width="1367.2717"
       height="162.42851"
       id="rect11" /><rect
       x="-771.8429"
       y="69.235077"
       width="1367.2717"
       height="162.42851"
       id="rect12" /><rect
       x="-771.8429"
       y="69.235077"
       width="1367.2717"
       height="162.42851"
       id="rect13" /><rect
       x="-771.8429"
       y="69.235077"
       width="1367.2717"
       height="162.42851"
       id="rect14" /><rect
       x="-771.8429"
       y="69.235077"
       width="1367.2717"
       height="162.42851"
       id="rect15" /><rect
       x="-771.8429"
       y="69.235077"
       width="1367.2717"
       height="162.42851"
       id="rect16" /><rect
       x="-771.8429"
       y="69.235077"
       width="1367.2717"
       height="162.42851"
       id="rect17" /><rect
       x="-771.8429"
       y="69.235077"
       width="1367.2717"
       height="162.42851"
       id="rect18" /><rect
       x="-771.8429"
       y="69.235077"
       width="1367.2717"
       height="162.42851"
       id="rect19" /><rect
       x="-771.8429"
       y="69.235077"
       width="1367.2717"
       height="162.42851"
       id="rect20" /><rect
       x="-771.8429"
       y="69.235077"
       width="1042.3988"
       height="216.57401"
       id="rect21" /><rect
       x="-771.8429"
       y="69.235077"
       width="1367.2717"
       height="162.42851"
       id="rect25" /><rect
       x="-771.8429"
       y="69.235077"
       width="1367.2717"
       height="162.42851"
       id="rect26" /><rect
       x="-771.8429"
       y="69.235077"
       width="1367.2717"
       height="162.42851"
       id="rect27" /><rect
       x="-771.8429"
       y="69.235077"
       width="1367.2717"
       height="162.42851"
       id="rect28" /><rect
       x="-771.8429"
       y="69.235077"
       width="1367.2717"
       height="162.42851"
       id="rect29" /><rect
       x="-771.8429"
       y="69.235077"
       width="947.72205"
       height="349.51065"
       id="rect38" /><rect
       x="-771.8429"
       y="69.235077"
       width="1367.2717"
       height="162.42851"
       id="rect76" /><rect
       x="-771.8429"
       y="69.235077"
       width="1367.2717"
       height="162.42851"
       id="rect78" /><rect
       x="-771.8429"
       y="69.235077"
       width="1367.2717"
       height="162.42851"
       id="rect80" /><rect
       x="-771.8429"
       y="69.235077"
       width="1367.2717"
       height="162.42851"
       id="rect82" /><rect
       x="-771.8429"
       y="69.235077"
       width="1367.2717"
       height="162.42851"
       id="rect31" /><rect
       x="-771.8429"
       y="69.235077"
       width="1367.2717"
       height="162.42851"
       id="rect32" /><rect
       x="-771.8429"
       y="69.235077"
       width="1367.2717"
       height="162.42851"
       id="rect33" /><rect
       x="-771.8429"
       y="69.235077"
       width="1367.2717"
       height="162.42851"
       id="rect34" /><rect
       x="-771.8429"
       y="69.235077"
       width="1367.2717"
       height="162.42851"
       id="rect85" /><rect
       x="-771.8429"
       y="69.235077"
       width="1367.2717"
       height="162.42851"
       id="rect87" /><rect
       x="-771.8429"
       y="69.235077"
       width="1367.2717"
       height="162.42851"
       id="rect89" /><rect
       x="-771.8429"
       y="69.235077"
       width="1367.2717"
       height="162.42851"
       id="rect92" /><rect
       x="185.26146"
       y="640.9776"
       width="116.29551"
       height="68.28981"
       id="rect23" /><rect
       x="185.26146"
       y="640.9776"
       width="116.29551"
       height="68.28981"
       id="rect37" /><rect
       x="185.26146"
       y="640.9776"
       width="116.29551"
       height="68.28981"
       id="rect57" /><rect
       x="185.26146"
       y="640.9776"
       width="116.29551"
       height="68.28981"
       id="rect58" /><rect
       x="185.26146"
       y="640.9776"
       width="116.29551"
       height="68.28981"
       id="rect59" /></defs><g
     inkscape:label="Layer 1"
     inkscape:groupmode="layer"
     id="layer1"
     transform="translate(0.2,0.2)"><path
       id="text27"
       style="font-size:97.0211px;line-height:1;font-family:Geologica;-inkscape-font-specification:Geologica;text-align:center;letter-spacing:3.89919px;word-spacing:0px;white-space:pre;fill:#ffffff;stroke-width:0.329825;stroke-linecap:round;stroke-linejoin:round;paint-order:fill markers stroke"
       d="m 27.855872,8.1702884 c -1.114778,0 -2.148606,0.194338 -3.101104,0.582393 -0.945444,0.388055 -1.770779,0.931376 -2.476333,1.6298746 -0.698501,0.698499 -1.2451,1.51676 -1.64021,2.455147 -0.388056,0.938387 -0.582393,1.958062 -0.582393,3.058729 0,1.093609 0.194337,2.109486 0.582393,3.047875 0.39511,0.938387 0.941709,1.756648 1.64021,2.455148 0.705554,0.698499 1.530889,1.245616 2.476333,1.640727 0.952498,0.388054 1.986326,0.581876 3.101104,0.581876 1.10772,0 2.134473,-0.193822 3.079915,-0.581876 0.945442,-0.395111 1.77078,-0.942228 2.476334,-1.640727 0.705554,-0.6985 1.252157,-1.516761 1.64021,-2.455148 0.395111,-0.938389 0.592729,-1.954266 0.592729,-3.047875 0,-1.079501 -0.197618,-2.085023 -0.592729,-3.016354 C 34.664278,11.94169 34.117675,11.119633 33.412121,10.414079 32.706567,9.7085244 31.881229,9.1581274 30.935787,8.7630174 29.990345,8.3679064 28.963592,8.1702884 27.855872,8.1702884 Z m 87.520238,0 c -1.11478,0 -2.14809,0.194338 -3.10059,0.582393 -0.94544,0.388055 -1.77129,0.931376 -2.47685,1.6298746 -0.6985,0.698499 -1.2451,1.51676 -1.64021,2.455147 -0.38805,0.938387 -0.58239,1.958062 -0.58239,3.058729 0,1.093609 0.19434,2.109486 0.58239,3.047875 0.39511,0.938387 0.94171,1.756648 1.64021,2.455148 0.70556,0.698499 1.53141,1.245616 2.47685,1.640727 0.9525,0.388054 1.98581,0.581876 3.10059,0.581876 1.10772,0 2.13447,-0.193822 3.07992,-0.581876 0.94544,-0.395111 1.77078,-0.942228 2.47633,-1.640727 0.70556,-0.6985 1.25267,-1.516761 1.64073,-2.455148 0.39511,-0.938389 0.59273,-1.954266 0.59273,-3.047875 0,-1.079501 -0.19762,-2.085023 -0.59273,-3.016354 -0.38806,-0.938388 -0.93517,-1.760445 -1.64073,-2.465999 -0.70555,-0.7055546 -1.53089,-1.2559516 -2.47633,-1.6510616 -0.94545,-0.395111 -1.9722,-0.592729 -3.07992,-0.592729 z m 30.4245,0 c -1.15711,0 -2.2258,0.183466 -3.20652,0.550354 -0.97367,0.366888 -1.82403,0.892777 -2.55075,1.5771646 -0.71967,0.677332 -1.28042,1.492313 -1.68259,2.444812 -0.40216,0.945443 -0.60358,2.00378 -0.60358,3.174999 0,1.178277 0.20849,2.239893 0.62477,3.185335 0.41628,0.945444 0.99826,1.75663 1.74615,2.433962 0.75494,0.670276 1.63309,1.18581 2.63498,1.545642 1.00189,0.359833 2.09232,0.539501 3.2706,0.539501 0.47978,0 1.02638,-0.04953 1.64021,-0.148311 0.62089,-0.09878 1.22082,-0.243065 1.79937,-0.433565 0.58562,-0.1905 1.07233,-0.416423 1.46038,-0.677478 v -6.921542 h -5.49269 v 1.968355 h 3.36569 v 3.577042 c -0.28222,0.141114 -0.65295,0.268486 -1.11156,0.381373 -0.45861,0.105833 -0.97363,0.158646 -1.54513,0.158646 -1.16416,0 -2.19419,-0.21505 -3.09025,-0.645438 -0.889,-0.437444 -1.58748,-1.076036 -2.09548,-1.915644 -0.508,-0.839613 -0.76222,-1.859286 -0.76222,-3.058729 0,-0.853722 0.13065,-1.622965 0.3917,-2.307352 0.26811,-0.684389 0.6492,-1.266371 1.14309,-1.746148 0.49388,-0.486832 1.09002,-0.857043 1.78852,-1.111043 0.6985,-0.261055 1.4781,-0.391707 2.33887,-0.391707 0.66322,0 1.30509,0.08492 1.92598,0.254248 0.62795,0.169333 1.21044,0.423044 1.74667,0.76171 l 1.03714,-1.8624176 c -0.47978,-0.331611 -0.98772,-0.592915 -1.52394,-0.783415 -0.52916,-0.197555 -1.0692,-0.338563 -1.61953,-0.42323 -0.55034,-0.08467 -1.09366,-0.127124 -1.62988,-0.127124 z M 39.427259,8.4880984 V 23.304765 h 8.826852 V 21.124536 H 41.798173 V 8.4880984 Z m 12.365652,0 V 23.304765 H 54.16331 V 8.4880984 Z m 5.274097,0 5.694226,14.8166666 h 2.529045 L 70.836193,8.4880984 h -2.61431 L 64.062965,20.140101 59.73403,8.4880984 Z m 16.662549,0 V 23.304765 h 9.641273 v -2.116666 h -7.270876 v -4.625042 h 6.222878 V 14.58385 h -6.222878 v -4.000273 h 7.207313 V 8.4880984 Z m 13.815177,0 V 23.304765 h 2.370399 v -5.979997 h 2.021581 l 4.095875,5.979997 h 2.868041 l -4.466394,-6.350001 c 0.740833,-0.126998 1.393578,-0.370873 1.95802,-0.730704 0.564445,-0.366889 1.002137,-0.832369 1.312583,-1.396814 0.317498,-0.564444 0.475939,-1.213391 0.475939,-1.947168 0,-0.90311 -0.207975,-1.682709 -0.624251,-2.338875 C 97.147306,9.8850374 96.565323,9.3803784 95.810381,9.0276004 95.062492,8.6677674 94.173469,8.4880984 93.143359,8.4880984 Z m 39.403276,0 V 23.304765 h 8.82634 v -2.180229 h -6.45594 V 8.4880984 Z m 28.39207,0 v 9.0382066 c 0,1.150056 0.22264,2.18716 0.66714,3.111438 0.45156,0.917223 1.11794,1.644009 1.99988,2.180229 0.889,0.536222 1.99359,0.804086 3.31298,0.804086 1.32644,0 2.43051,-0.267864 3.31246,-0.804086 0.88899,-0.543276 1.55589,-1.27386 2.00039,-2.19108 0.45156,-0.924278 0.67696,-1.957587 0.67696,-3.100587 V 8.4880984 h -2.38125 v 9.0170206 c 0,1.305276 -0.32447,2.278696 -0.97358,2.920753 -0.64911,0.634997 -1.52726,0.952395 -2.63498,0.952395 -1.10772,0 -1.98639,-0.317398 -2.6355,-0.952395 -0.64911,-0.642057 -0.97359,-1.615477 -0.97359,-2.920753 V 8.4880984 Z m 16.58813,0 V 23.304765 h 2.37092 V 8.4880984 Z m 7.08433,0 V 23.304765 h 2.31768 V 12.414473 l 7.4719,10.890292 h 2.26498 V 8.4880984 h -2.30735 V 19.251266 L 181.27751,8.4880984 Z M 27.855872,10.414079 c 0.994832,0 1.894211,0.225923 2.698542,0.677478 0.804333,0.451555 1.439644,1.090146 1.905312,1.915645 0.472721,0.818444 0.709001,1.781508 0.709001,2.88923 0,0.825497 -0.137728,1.576792 -0.412896,2.254126 -0.26811,0.670276 -0.64212,1.248978 -1.121895,1.73581 -0.479779,0.479777 -1.044328,0.849988 -1.693438,1.111043 -0.642055,0.253999 -1.336737,0.380856 -2.084626,0.380856 -1.001888,0 -1.905063,-0.225407 -2.709396,-0.676961 -0.797277,-0.451555 -1.432071,-1.086866 -1.904793,-1.90531 -0.472723,-0.825499 -0.709518,-1.791844 -0.709518,-2.899564 0,-0.832557 0.134449,-1.584366 0.40256,-2.254643 0.275165,-0.677333 0.652452,-1.255518 1.132231,-1.735295 0.486832,-0.479777 1.051381,-0.846708 1.693436,-1.100708 0.64911,-0.261055 1.347591,-0.391707 2.09548,-0.391707 z m 87.520238,0 c 0.99483,0 1.89473,0.225923 2.69906,0.677478 0.80433,0.451555 1.43913,1.090146 1.90479,1.915645 0.47273,0.818444 0.709,1.781508 0.709,2.88923 0,0.825497 -0.13772,1.576792 -0.41289,2.254126 -0.26811,0.670276 -0.6416,1.248978 -1.12138,1.73581 -0.47978,0.479777 -1.04432,0.849988 -1.69344,1.111043 -0.64205,0.253999 -1.33725,0.380856 -2.08514,0.380856 -1.00189,0 -1.90506,-0.225407 -2.70939,-0.676961 -0.79728,-0.451555 -1.43208,-1.086866 -1.9048,-1.90531 -0.47272,-0.825499 -0.709,-1.791844 -0.709,-2.899564 0,-0.832557 0.13393,-1.584366 0.40204,-2.254643 0.27517,-0.677333 0.65246,-1.255518 1.13223,-1.735295 0.48684,-0.479777 1.05139,-0.846708 1.69344,-1.100708 0.64911,-0.261055 1.34759,-0.391707 2.09548,-0.391707 z m -25.460977,0.08475 h 3.006018 c 0.959553,0 1.675468,0.218847 2.148189,0.656291 0.479779,0.437444 0.719852,1.04773 0.719852,1.830896 0,0.761999 -0.26838,1.347261 -0.804601,1.756483 -0.529167,0.409219 -1.273384,0.613915 -2.232939,0.613915 h -2.836519 z m 61.423637,18.32188 c -0.111,0 -0.20693,0.03669 -0.28783,0.110071 -0.0809,0.0715 -0.12144,0.164281 -0.12144,0.279051 0,0.116653 0.0405,0.211175 0.12144,0.28267 0.0809,0.0715 0.17683,0.106971 0.28783,0.106971 0.11101,0 0.20694,-0.03547 0.28784,-0.106971 0.0809,-0.07149 0.12144,-0.166017 0.12144,-0.28267 0,-0.11477 -0.0405,-0.207556 -0.12144,-0.279051 -0.0809,-0.07338 -0.17683,-0.110071 -0.28784,-0.110071 z m 24.83001,0 c -0.11101,0 -0.20693,0.03669 -0.28784,0.110071 -0.0809,0.0715 -0.12144,0.164281 -0.12144,0.279051 0,0.116653 0.0405,0.211175 0.12144,0.28267 0.0809,0.0715 0.17683,0.106971 0.28784,0.106971 0.11101,0 0.20694,-0.03547 0.28784,-0.106971 0.0809,-0.07149 0.12092,-0.166017 0.12092,-0.28267 0,-0.11477 -0.04,-0.207556 -0.12092,-0.279051 -0.0809,-0.07338 -0.17683,-0.110071 -0.28784,-0.110071 z m -48.34898,0.0083 v 4.063833 h 0.62115 v -1.571479 c 0,-0.146756 0.0297,-0.276049 0.0899,-0.387056 0.0621,-0.111007 0.14701,-0.196624 0.25425,-0.256834 0.10725,-0.06209 0.23026,-0.09302 0.36949,-0.09302 0.21072,0.0019 0.37741,0.06426 0.49971,0.186554 0.1223,0.122295 0.18345,0.281298 0.18345,0.476973 v 1.644859 h 0.62063 v -1.823144 c 0,-0.174978 -0.0419,-0.343072 -0.1266,-0.504879 -0.0847,-0.161807 -0.21204,-0.293725 -0.38138,-0.395324 -0.16933,-0.103481 -0.38058,-0.155029 -0.63458,-0.155029 -0.19379,0 -0.37848,0.04316 -0.55346,0.129708 -0.12081,0.05846 -0.22483,0.145885 -0.32142,0.246497 v -1.561662 z m -13.79865,0.113171 v 3.950662 h 0.57878 l -0.008,-2.90163 1.26659,2.049486 h 0.4625 l 1.22163,-2.013829 -0.008,2.865973 h 0.61805 V 28.94218 h -0.60151 l -1.43041,2.419491 -1.48776,-2.419491 z m 49.05748,0 v 3.950662 h 2.5709 v -0.564305 h -1.9389 v -1.232999 h 1.65933 v -0.528166 h -1.65933 v -1.066603 h 1.92184 v -0.558622 z m -26.75031,0.341065 v 0.81597 h -0.61237 v 0.513664 h 0.61237 v 1.402499 c 0,0.325494 0.0818,0.567492 0.24546,0.725536 0.16369,0.158045 0.38193,0.236679 0.65474,0.236679 0.11101,0 0.21847,-0.01415 0.32195,-0.04237 0.10536,-0.02634 0.19866,-0.05989 0.27957,-0.101288 l -0.11007,-0.502294 c -0.047,0.02446 -0.0998,0.04386 -0.15813,0.05891 -0.0583,0.01505 -0.1207,0.02274 -0.18656,0.02274 -0.13546,0 -0.24048,-0.03932 -0.31574,-0.11834 -0.0734,-0.0809 -0.11007,-0.219287 -0.11007,-0.414962 v -1.267105 h 0.77618 v -0.513702 h -0.77618 v -0.81597 z m -117.178377,0.46457 -1.658296,2.872176 h 3.033406 l 1.658296,-2.872176 z m 6.35,0 -1.658298,2.872176 h 3.033407 l 1.658298,-2.872209 z m 6.349999,0 -1.658296,2.872176 h 3.033406 l 1.658299,-2.872176 z m 6.350001,0 -1.658296,2.872176 h 3.033406 l 1.658296,-2.872176 z m 6.35,0 -1.658296,2.872176 h 3.033407 l 1.658296,-2.872209 z m 6.350001,0 -1.658298,2.872176 h 3.033406 l 1.658298,-2.872209 z m 6.349998,0 -1.658296,2.872176 h 3.033407 l 1.658296,-2.872176 z m 6.350001,0 -1.658296,2.872176 h 3.033407 l 1.658296,-2.872209 z m 6.350001,0 -1.658298,2.872176 h 3.033406 l 1.658298,-2.872209 z m 6.349998,0 -1.658296,2.872176 h 3.033407 l 1.658296,-2.872176 z m 6.350001,0 -1.658296,2.872176 h 3.033407 l 1.658295,-2.872176 z m 6.350001,0 -1.658299,2.872176 h 3.033407 l 1.658298,-2.872209 z m 6.349998,0 -1.658296,2.872176 h 3.033407 l 1.658296,-2.872176 z m 6.349998,0 -1.65829,2.872176 h 3.0334 l 1.6583,-2.872176 z m 6.35,0 -1.65829,2.872176 h 3.0334 l 1.6583,-2.872176 z m 25.13904,0.238229 c -0.17498,0 -0.35774,0.02446 -0.54777,0.07338 -0.19003,0.04892 -0.37228,0.132614 -0.54726,0.251147 l 0.17467,0.457336 c 0.12982,-0.09407 0.26628,-0.162915 0.40928,-0.206188 0.14299,-0.04516 0.28784,-0.0677 0.4346,-0.0677 0.15992,0 0.29376,0.02568 0.40101,0.07648 0.10724,0.0508 0.18709,0.122264 0.23977,0.214456 0.0527,0.09031 0.0791,0.19725 0.0791,0.321428 v 0.107486 c -0.29727,-0.02317 -0.56399,-0.0269 -0.78445,-0.0026 -0.25588,0.02634 -0.46573,0.07981 -0.62942,0.160714 -0.16181,0.0809 -0.28149,0.183296 -0.35863,0.307473 -0.0771,0.122297 -0.11576,0.259463 -0.11576,0.411862 0,0.180622 0.0405,0.337705 0.12144,0.47129 0.0828,0.131702 0.19793,0.234613 0.34468,0.307991 0.14676,0.0715 0.31677,0.106971 0.51057,0.106971 0.20696,0 0.39427,-0.03547 0.56172,-0.106971 0.16745,-0.07149 0.29815,-0.174406 0.39222,-0.307991 v 0.330211 h 0.55863 v -1.791621 c 0,-0.250236 -0.0496,-0.457463 -0.14935,-0.62115 -0.0997,-0.165571 -0.24265,-0.288583 -0.42891,-0.369488 -0.18439,-0.08279 -0.40647,-0.124539 -0.66611,-0.124539 z m 24.91166,0 c -0.21449,0 -0.40372,0.03669 -0.56741,0.110071 -0.16369,0.07338 -0.29247,0.175069 -0.38654,0.30489 -0.0922,0.127941 -0.13849,0.275932 -0.13849,0.443385 0,0.238948 0.0791,0.425739 0.23719,0.561204 0.15993,0.133585 0.41556,0.237199 0.76739,0.310577 0.2446,0.05644 0.41058,0.111133 0.49713,0.163813 0.0884,0.0508 0.13229,0.130653 0.13229,0.23978 0,0.11477 -0.0508,0.204231 -0.15244,0.268199 -0.1016,0.06397 -0.24331,0.09612 -0.42582,0.09612 -0.15804,0 -0.31896,-0.02952 -0.48265,-0.08785 -0.16181,-0.05833 -0.30788,-0.138178 -0.4377,-0.239777 l -0.2341,0.454236 c 0.13735,0.111007 0.30666,0.199763 0.50798,0.265616 0.20132,0.06585 0.41764,0.0987 0.64906,0.0987 0.22766,0 0.4272,-0.03669 0.59841,-0.110069 0.1731,-0.07338 0.30764,-0.175772 0.40359,-0.307476 0.096,-0.133585 0.14367,-0.289964 0.14367,-0.468705 0,-0.233304 -0.0779,-0.416068 -0.2341,-0.54777 -0.15616,-0.131704 -0.41494,-0.236721 -0.77618,-0.315745 -0.22954,-0.05268 -0.39117,-0.105448 -0.48524,-0.158128 -0.0941,-0.05268 -0.14108,-0.134456 -0.14108,-0.245463 0,-0.107245 0.0489,-0.19094 0.14676,-0.251147 0.0997,-0.06209 0.2285,-0.09302 0.38654,-0.09302 0.1016,0 0.20329,0.01293 0.30489,0.03927 0.10348,0.02446 0.20133,0.05923 0.29353,0.104387 0.0922,0.04516 0.17326,0.09862 0.24288,0.160714 l 0.21962,-0.456821 c -0.13547,-0.107244 -0.29517,-0.190236 -0.47956,-0.248562 -0.18438,-0.06021 -0.38078,-0.09043 -0.58962,-0.09043 z m -17.28112,0.02532 c -0.1731,0 -0.33472,0.03599 -0.48524,0.107486 -0.15052,0.06961 -0.2786,0.191924 -0.38396,0.366902 v -0.38657 h -0.62063 v 2.793627 h 0.62063 v -1.520836 c 0,-0.22766 0.0708,-0.407283 0.21187,-0.538985 0.14112,-0.133585 0.32004,-0.200505 0.53641,-0.200505 0.0583,0 0.11634,0.0045 0.17466,0.01395 0.0583,0.0094 0.11564,0.02286 0.17208,0.03979 l 0.0822,-0.640787 c -0.047,-0.01129 -0.096,-0.01968 -0.14676,-0.02532 -0.0508,-0.0056 -0.10479,-0.0088 -0.16123,-0.0088 z m 51.38136,0 c -0.1731,0 -0.33524,0.03599 -0.48576,0.107486 -0.15052,0.06961 -0.27808,0.191924 -0.38344,0.366902 v -0.38657 h -0.62115 v 2.793627 h 0.62115 v -1.520836 c 0,-0.22766 0.0702,-0.407283 0.21136,-0.538985 0.14111,-0.133585 0.32003,-0.200505 0.5364,-0.200505 0.0583,0 0.11634,0.0045 0.17467,0.01395 0.0583,0.0094 0.11615,0.02286 0.17259,0.03979 l 0.0816,-0.640787 c -0.047,-0.01129 -0.096,-0.01968 -0.14676,-0.02532 -0.0508,-0.0056 -0.10427,-0.0088 -0.16071,-0.0088 z m -71.01272,0.0031 c -0.21261,0 -0.40952,0.03669 -0.59015,0.110071 -0.17874,0.07338 -0.3346,0.176989 -0.46818,0.310574 -0.13359,0.133585 -0.2372,0.291371 -0.31058,0.473873 -0.0734,0.180624 -0.11007,0.37824 -0.11007,0.59273 0,0.293511 0.0631,0.551064 0.18914,0.773078 0.12794,0.222016 0.30564,0.395172 0.5333,0.51935 0.22765,0.122295 0.49219,0.183451 0.79323,0.183451 0.12982,0 0.26436,-0.01415 0.40359,-0.04237 0.13923,-0.02634 0.27255,-0.06496 0.40049,-0.115757 0.12795,-0.05268 0.23732,-0.115242 0.32763,-0.188619 l -0.23978,-0.445968 c -0.12041,0.09407 -0.25495,0.16554 -0.40359,0.214459 -0.14675,0.04704 -0.29929,0.07028 -0.45733,0.07028 -0.19568,0 -0.36621,-0.03477 -0.51108,-0.104388 -0.143,-0.06961 -0.25256,-0.166244 -0.3297,-0.290422 -0.0771,-0.126058 -0.11384,-0.272831 -0.11007,-0.440282 h 2.22932 c 0.0339,-0.229541 0.0255,-0.442531 -0.0253,-0.638204 -0.0489,-0.197555 -0.13384,-0.369492 -0.25425,-0.516247 -0.11853,-0.146756 -0.26793,-0.260678 -0.44855,-0.341582 -0.18062,-0.08279 -0.38663,-0.124023 -0.61805,-0.124023 z m 4.19509,0 c -0.2239,0 -0.43182,0.03669 -0.62373,0.110071 -0.19003,0.07338 -0.3555,0.176989 -0.49661,0.310574 -0.14112,0.133585 -0.25049,0.290669 -0.32763,0.47129 -0.0771,0.178741 -0.11576,0.37514 -0.11576,0.589627 0,0.284104 0.065,0.538333 0.19482,0.762229 0.13171,0.222014 0.31255,0.397793 0.54209,0.527616 0.22954,0.127941 0.49094,0.19172 0.78445,0.19172 0.19191,0 0.37922,-0.03163 0.56172,-0.0956 0.1825,-0.06397 0.34797,-0.152726 0.49661,-0.265616 l -0.29662,-0.47129 c -0.0828,0.08467 -0.18588,0.153508 -0.31006,0.20619 -0.12418,0.0508 -0.2561,0.07596 -0.39533,0.07596 -0.29351,0 -0.5259,-0.08248 -0.69711,-0.248045 -0.16933,-0.16557 -0.25373,-0.394118 -0.25373,-0.685747 0,-0.195675 0.0381,-0.362364 0.11524,-0.49971 0.079,-0.139231 0.1891,-0.245467 0.33021,-0.318845 0.14111,-0.07338 0.30972,-0.110071 0.50539,-0.110071 0.12606,0 0.24453,0.0187 0.35554,0.05633 0.11289,0.03763 0.21266,0.09494 0.2992,0.172083 l 0.29921,-0.473873 c -0.13547,-0.103483 -0.28416,-0.180009 -0.44597,-0.228928 -0.15992,-0.0508 -0.33378,-0.07596 -0.52193,-0.07596 z m 18.33325,0 c -0.22013,0 -0.4223,0.03932 -0.60668,0.11834 -0.18439,0.07902 -0.34531,0.187179 -0.48266,0.324527 -0.13547,0.137349 -0.241,0.29565 -0.31626,0.474388 -0.0734,0.176861 -0.11007,0.364871 -0.11007,0.564307 0,0.269053 0.065,0.516298 0.19482,0.742075 0.12982,0.223895 0.30874,0.404034 0.5364,0.539502 0.22954,0.133585 0.49024,0.199988 0.78187,0.199988 0.22201,0 0.42487,-0.03932 0.60926,-0.11834 0.18439,-0.07902 0.34461,-0.187179 0.48008,-0.324528 0.13546,-0.137348 0.23978,-0.295649 0.31315,-0.47439 0.0753,-0.17874 0.11266,-0.366751 0.11266,-0.564307 0,-0.26905 -0.065,-0.515592 -0.19482,-0.739489 -0.12982,-0.225778 -0.30945,-0.4054 -0.53899,-0.538985 -0.22765,-0.135467 -0.48713,-0.203088 -0.77876,-0.203088 z m 4.4943,0 c -0.16557,0 -0.32579,0.03477 -0.48008,0.104386 -0.15428,0.06773 -0.28952,0.179733 -0.40617,0.335896 v -0.355564 h -0.62115 v 2.793627 h 0.62115 V 31.32133 c 0,-0.146756 0.0309,-0.27483 0.093,-0.383956 0.0621,-0.111007 0.147,-0.197844 0.25424,-0.259934 0.10913,-0.06209 0.23336,-0.09302 0.37259,-0.09302 0.21261,0 0.37808,0.06045 0.49661,0.180868 0.12042,0.120415 0.18035,0.280121 0.18035,0.479557 v 1.647961 h 0.62115 v -1.839681 c 0,-0.169331 -0.0418,-0.334101 -0.12454,-0.494025 -0.0809,-0.159926 -0.20461,-0.290625 -0.37207,-0.392225 -0.16745,-0.101599 -0.37922,-0.152445 -0.6351,-0.152445 z m 6.47661,0 c -0.2239,0 -0.43183,0.03669 -0.62374,0.110071 -0.19003,0.07338 -0.35601,0.176989 -0.49713,0.310574 -0.14111,0.133585 -0.24997,0.290669 -0.32711,0.47129 -0.0771,0.178741 -0.11575,0.37514 -0.11575,0.589627 0,0.284104 0.065,0.538333 0.19482,0.762229 0.1317,0.222014 0.31203,0.397793 0.54157,0.527616 0.22954,0.127941 0.49145,0.19172 0.78496,0.19172 0.19191,0 0.37922,-0.03163 0.56172,-0.0956 0.18251,-0.06397 0.34798,-0.152726 0.49661,-0.265616 l -0.29662,-0.47129 c -0.0828,0.08467 -0.18588,0.153508 -0.31006,0.20619 -0.12417,0.0508 -0.25609,0.07596 -0.39532,0.07596 -0.29351,0 -0.5259,-0.08248 -0.69712,-0.248045 -0.16933,-0.16557 -0.25424,-0.394118 -0.25424,-0.685747 0,-0.195675 0.0386,-0.362364 0.11575,-0.49971 0.079,-0.139231 0.1891,-0.245467 0.33021,-0.318845 0.14111,-0.07338 0.30973,-0.110071 0.5054,-0.110071 0.12606,0 0.24453,0.0187 0.35553,0.05633 0.11289,0.03763 0.21266,0.09494 0.29921,0.172083 l 0.2992,-0.473873 c -0.13546,-0.103483 -0.28415,-0.180009 -0.44596,-0.228928 -0.15993,-0.0508 -0.33378,-0.07596 -0.52193,-0.07596 z m 14.1242,0 c -0.16557,0 -0.32579,0.03477 -0.48008,0.104386 -0.15428,0.06773 -0.28952,0.179733 -0.40617,0.335896 v -0.355564 h -0.62115 v 2.793627 h 0.62115 V 31.32133 c 0,-0.146756 0.0309,-0.27483 0.093,-0.383956 0.0621,-0.111007 0.147,-0.197844 0.25424,-0.259934 0.10913,-0.06209 0.23336,-0.09302 0.37259,-0.09302 0.21261,0 0.37808,0.06045 0.49661,0.180868 0.12042,0.120415 0.18035,0.280121 0.18035,0.479557 v 1.647961 h 0.62115 v -1.839681 c 0,-0.169331 -0.0418,-0.334101 -0.12454,-0.494025 -0.0809,-0.159926 -0.20462,-0.290625 -0.37207,-0.392225 -0.16745,-0.101599 -0.37922,-0.152445 -0.6351,-0.152445 z m 3.96048,0 c -0.23142,0 -0.44005,0.04438 -0.62632,0.132808 -0.18438,0.08843 -0.33115,0.2076 -0.44028,0.358117 -0.10724,0.150519 -0.16071,0.31913 -0.16071,0.505396 0,0.186267 0.0535,0.354362 0.16071,0.504878 0.0982,0.137798 0.23249,0.246521 0.39532,0.33228 -0.0322,0.01654 -0.0729,0.02715 -0.1018,0.04599 -0.0847,0.05456 -0.15036,0.11764 -0.1974,0.189135 -0.0452,0.06961 -0.0677,0.14422 -0.0677,0.223242 0,0.09219 0.0259,0.173967 0.0785,0.245464 0.0546,0.0715 0.13756,0.135274 0.24856,0.19172 -0.14863,0.0301 -0.27479,0.0764 -0.37827,0.138491 -0.1016,0.06021 -0.17883,0.132375 -0.23151,0.217042 -0.0508,0.08467 -0.076,0.17483 -0.076,0.270785 0,0.120415 0.0309,0.229792 0.093,0.327628 0.0621,0.09784 0.15154,0.181534 0.26819,0.251148 0.11854,0.06961 0.26147,0.122382 0.42892,0.158129 0.16745,0.03763 0.35546,0.05633 0.56431,0.05633 0.2333,0 0.44629,-0.02446 0.6382,-0.07338 0.19191,-0.04892 0.35616,-0.116542 0.49351,-0.203088 0.13923,-0.08655 0.24598,-0.188943 0.31936,-0.307476 0.0753,-0.116651 0.11266,-0.244025 0.11266,-0.381371 0,-0.161809 -0.0451,-0.29513 -0.1354,-0.400493 -0.0884,-0.105363 -0.2165,-0.187138 -0.38395,-0.245463 -0.16557,-0.05833 -0.36582,-0.09694 -0.601,-0.115756 l -0.48007,-0.03669 c -0.13359,-0.01129 -0.23668,-0.03121 -0.31006,-0.05943 -0.0734,-0.03011 -0.11007,-0.07711 -0.11007,-0.141077 0,-0.04892 0.0213,-0.09016 0.0646,-0.124025 0.0452,-0.03575 0.10823,-0.06335 0.18914,-0.08216 0.0147,-0.0037 0.0374,-0.0022 0.0532,-0.0052 0.0635,0.0074 0.12474,0.01964 0.19223,0.01964 0.2333,0 0.44245,-0.04438 0.62684,-0.132809 0.18438,-0.09031 0.32993,-0.2107 0.43718,-0.361219 0.10724,-0.150519 0.16123,-0.31791 0.16123,-0.502295 0,-0.148468 -0.0449,-0.282488 -0.11421,-0.408243 l 0.5855,0.01034 0.006,-0.513664 -1.09347,0.04289 c -0.18085,-0.08397 -0.38323,-0.12764 -0.60875,-0.12764 z m 6.92826,0 c -0.16557,0 -0.32528,0.03477 -0.47956,0.104386 -0.15428,0.06773 -0.29004,0.179733 -0.40669,0.335896 v -0.355564 h -0.62064 v 2.793627 h 0.62064 V 31.32133 c 0,-0.146756 0.0309,-0.27483 0.093,-0.383956 0.0621,-0.111007 0.147,-0.197844 0.25424,-0.259934 0.10913,-0.06209 0.23336,-0.09302 0.37259,-0.09302 0.21261,0 0.37808,0.06045 0.49661,0.180868 0.12042,0.120415 0.18035,0.280121 0.18035,0.479557 v 1.647961 h 0.62115 v -1.839681 c 0,-0.169331 -0.0412,-0.334101 -0.12402,-0.494025 -0.0809,-0.159926 -0.20513,-0.290625 -0.37259,-0.392225 -0.16745,-0.101599 -0.37922,-0.152445 -0.6351,-0.152445 z m 4.0566,0 c -0.21261,0 -0.40901,0.03669 -0.58963,0.110071 -0.17874,0.07338 -0.33512,0.176989 -0.4687,0.310574 -0.13359,0.133585 -0.2372,0.291371 -0.31058,0.473873 -0.0734,0.180624 -0.11007,0.37824 -0.11007,0.59273 0,0.293511 0.0631,0.551064 0.18914,0.773078 0.12794,0.222016 0.30616,0.395172 0.53381,0.51935 0.22766,0.122295 0.49168,0.183451 0.79272,0.183451 0.12982,0 0.26436,-0.01415 0.40359,-0.04237 0.13923,-0.02634 0.27307,-0.06496 0.40101,-0.115757 0.12794,-0.05268 0.2368,-0.115242 0.32712,-0.188619 l -0.23978,-0.445968 c -0.12042,0.09407 -0.25496,0.16554 -0.4036,0.214459 -0.14675,0.04704 -0.29929,0.07028 -0.45733,0.07028 -0.19568,0 -0.36569,-0.03477 -0.51057,-0.104388 -0.14299,-0.06961 -0.25307,-0.166244 -0.33021,-0.290422 -0.0771,-0.126058 -0.11383,-0.272831 -0.11007,-0.440282 h 2.22932 c 0.0339,-0.229541 0.0255,-0.442531 -0.0253,-0.638204 -0.0489,-0.197555 -0.13332,-0.369492 -0.25373,-0.516247 -0.11853,-0.146756 -0.26845,-0.260678 -0.44907,-0.341582 -0.18062,-0.08279 -0.38663,-0.124023 -0.61805,-0.124023 z m 4.11034,0 c -0.2126,0 -0.409,0.03669 -0.58962,0.110071 -0.17874,0.07338 -0.33513,0.176989 -0.46871,0.310574 -0.13359,0.133585 -0.2372,0.291371 -0.31057,0.473873 -0.0734,0.180624 -0.11008,0.37824 -0.11008,0.59273 0,0.293511 0.0631,0.551064 0.18914,0.773078 0.12794,0.222016 0.30616,0.395172 0.53382,0.51935 0.22766,0.122295 0.49168,0.183451 0.79271,0.183451 0.12983,0 0.26437,-0.01415 0.4036,-0.04237 0.13923,-0.02634 0.27306,-0.06496 0.40101,-0.115757 0.12794,-0.05268 0.2368,-0.115242 0.32711,-0.188619 l -0.23978,-0.445968 c -0.12041,0.09407 -0.25496,0.16554 -0.40359,0.214459 -0.14676,0.04704 -0.2993,0.07028 -0.45734,0.07028 -0.19567,0 -0.36569,-0.03477 -0.51056,-0.104388 -0.143,-0.06961 -0.25308,-0.166244 -0.33022,-0.290422 -0.0771,-0.126058 -0.11383,-0.272831 -0.11007,-0.440282 h 2.22932 c 0.0339,-0.229541 0.0255,-0.442531 -0.0253,-0.638204 -0.0489,-0.197555 -0.13331,-0.369492 -0.25373,-0.516247 -0.11853,-0.146756 -0.26845,-0.260678 -0.44907,-0.341582 -0.18062,-0.08279 -0.38663,-0.124023 -0.61805,-0.124023 z m -36.83909,0.08475 v 2.793627 h 0.62115 v -2.793659 z m 24.83001,0 v 2.793627 h 0.62063 v -2.793659 z m -3.08612,0.378273 c 0.19379,0 0.35209,0.04963 0.47439,0.149343 0.12418,0.09784 0.18604,0.225912 0.18604,0.383956 0,0.105363 -0.0283,0.198149 -0.0848,0.279053 -0.0564,0.07902 -0.13438,0.141398 -0.2341,0.186551 -0.0997,0.04328 -0.21364,0.0646 -0.34158,0.0646 -0.19379,0 -0.3528,-0.04841 -0.47697,-0.146245 -0.1223,-0.09972 -0.18345,-0.227793 -0.18345,-0.383956 0,-0.105363 0.0283,-0.197447 0.0847,-0.276468 0.0564,-0.08091 0.13367,-0.143981 0.2315,-0.189137 0.0997,-0.04516 0.21435,-0.06769 0.34417,-0.06769 z m -51.59788,0.02222 c 0.23706,0 0.41931,0.06045 0.54725,0.180868 0.12982,0.120414 0.19745,0.285884 0.20309,0.49661 h -1.58285 c 0.0226,-0.210726 0.1089,-0.376196 0.25941,-0.49661 0.1524,-0.120417 0.34356,-0.180868 0.5731,-0.180868 z m 62.56879,0 c 0.23706,0 0.41931,0.06045 0.54725,0.180868 0.12982,0.120414 0.19796,0.285884 0.20361,0.49661 h -1.58337 c 0.0226,-0.210726 0.1089,-0.376196 0.25942,-0.49661 0.1524,-0.120417 0.34355,-0.180868 0.57309,-0.180868 z m 4.11034,0 c 0.23707,0 0.41931,0.06045 0.54725,0.180868 0.12983,0.120414 0.19796,0.285884 0.20361,0.49661 h -1.58337 c 0.0226,-0.210726 0.1089,-0.376196 0.25942,-0.49661 0.1524,-0.120417 0.34355,-0.180868 0.57309,-0.180868 z m -44.13942,0.06511 c 0.17309,0 0.32633,0.0374 0.45992,0.112654 0.13546,0.07526 0.2417,0.183419 0.31884,0.32453 0.0771,0.139229 0.11575,0.303997 0.11575,0.494025 0,0.190031 -0.0386,0.354799 -0.11575,0.494028 -0.0771,0.139228 -0.18338,0.247386 -0.31884,0.324527 -0.13359,0.07526 -0.28683,0.112654 -0.45992,0.112654 -0.17122,0 -0.32497,-0.03739 -0.46044,-0.112654 -0.13359,-0.07714 -0.2386,-0.185299 -0.31574,-0.324527 -0.0771,-0.139229 -0.11576,-0.303997 -0.11576,-0.494028 0,-0.190028 0.0374,-0.354796 0.11266,-0.494025 0.0771,-0.141111 0.18267,-0.249269 0.31626,-0.32453 0.13546,-0.07526 0.28992,-0.112654 0.46302,-0.112654 z m -10.39213,1.04128 c 0.14265,-0.0044 0.32511,0.01421 0.51056,0.03462 v 0.208257 c 0,0.129821 -0.0341,0.242526 -0.1018,0.338481 -0.0658,0.09596 -0.15602,0.17056 -0.27079,0.223243 -0.11477,0.05268 -0.24476,0.07855 -0.38964,0.07855 -0.16933,0 -0.30265,-0.03618 -0.40049,-0.109554 -0.096,-0.07338 -0.14418,-0.178211 -0.14418,-0.313676 0,-0.08655 0.0276,-0.16256 0.0822,-0.228411 0.0564,-0.06773 0.14276,-0.121202 0.25941,-0.160714 0.11854,-0.04139 0.27037,-0.06515 0.45476,-0.0708 z m 39.20794,1.292428 0.51366,0.03979 c 0.22013,0.01505 0.38368,0.05053 0.49093,0.106968 0.10724,0.05645 0.16071,0.135597 0.16071,0.237197 0,0.133584 -0.0806,0.241742 -0.24236,0.324527 -0.15993,0.08467 -0.38009,0.127123 -0.66043,0.127123 -0.17309,0 -0.32301,-0.0187 -0.44906,-0.05633 -0.12606,-0.03575 -0.22269,-0.08659 -0.29043,-0.152445 -0.0677,-0.06585 -0.1018,-0.142379 -0.1018,-0.228928 0,-0.07149 0.0225,-0.135273 0.0677,-0.191719 0.0451,-0.05644 0.11085,-0.102745 0.1974,-0.138492 0.0884,-0.03575 0.19326,-0.05829 0.31368,-0.0677 z" /><text
       xml:space="preserve"
       transform="scale(0.26458333)"
       id="text93"
       style="font-style:normal;font-variant:normal;font-weight:normal;font-stretch:normal;font-size:21.3333px;line-height:1;font-family:Geologica;-inkscape-font-specification:Geologica;text-align:justify;letter-spacing:1px;word-spacing:0px;white-space:pre;shape-inside:url(#rect94);display:inline;fill:none;fill-opacity:1;stroke:#ffffff;stroke-width:6.04724;stroke-dasharray:none;paint-order:fill markers stroke" /></g></svg>
