<?xml version="1.0" encoding="UTF-8" standalone="no"?>
<!-- Created with Inkscape (http://www.inkscape.org/) -->

<svg
   width="212.06667mm"
   height="53.712055mm"
   viewBox="0 0 212.06667 53.712055"
   version="1.1"
   id="svg1"
   xml:space="preserve"
   inkscape:version="1.3.2 (091e20e, 2023-11-25, custom)"
   sodipodi:docname="header-es.svg"
   xmlns:inkscape="http://www.inkscape.org/namespaces/inkscape"
   xmlns:sodipodi="http://sodipodi.sourceforge.net/DTD/sodipodi-0.dtd"
   xmlns="http://www.w3.org/2000/svg"
   xmlns:svg="http://www.w3.org/2000/svg"><sodipodi:namedview
     id="namedview1"
     pagecolor="#ffffff"
     bordercolor="#000000"
     borderopacity="0.25"
     inkscape:showpageshadow="2"
     inkscape:pageopacity="0.0"
     inkscape:pagecheckerboard="0"
     inkscape:deskcolor="#d1d1d1"
     inkscape:document-units="mm"
     inkscape:zoom="0.5562965"
     inkscape:cx="790.94512"
     inkscape:cy="245.37275"
     inkscape:window-width="1366"
     inkscape:window-height="745"
     inkscape:window-x="-8"
     inkscape:window-y="-8"
     inkscape:window-maximized="1"
     inkscape:current-layer="layer1"
     showgrid="true"
     showguides="true"><inkscape:grid
       id="grid36"
       units="px"
       originx="0.20002834"
       originy="0.59538436"
       spacingx="0.26458333"
       spacingy="0.26458334"
       empcolor="#0099e5"
       empopacity="0.30196078"
       color="#0099e5"
       opacity="0.14901961"
       empspacing="5"
       dotted="false"
       gridanglex="30"
       gridanglez="30"
       visible="true" /></sodipodi:namedview><defs
     id="defs1"><rect
       x="233.34715"
       y="662.14111"
       width="57.222073"
       height="60.194649"
       id="rect94" /><rect
       x="-771.8429"
       y="69.235077"
       width="638.50122"
       height="615.42291"
       id="rect4" /><rect
       x="-771.8429"
       y="69.235077"
       width="1042.3988"
       height="216.57401"
       id="rect5" /><rect
       x="-771.8429"
       y="69.235077"
       width="1042.3988"
       height="216.57401"
       id="rect6" /><rect
       x="-771.8429"
       y="69.235077"
       width="1367.2717"
       height="162.42851"
       id="rect7" /><rect
       x="-771.8429"
       y="69.235077"
       width="1367.2717"
       height="162.42851"
       id="rect8" /><rect
       x="-771.8429"
       y="69.235077"
       width="1367.2717"
       height="162.42851"
       id="rect9" /><rect
       x="-771.8429"
       y="69.235077"
       width="1367.2717"
       height="162.42851"
       id="rect10" /><rect
       x="-771.8429"
       y="69.235077"
       width="1367.2717"
       height="162.42851"
       id="rect11" /><rect
       x="-771.8429"
       y="69.235077"
       width="1367.2717"
       height="162.42851"
       id="rect12" /><rect
       x="-771.8429"
       y="69.235077"
       width="1367.2717"
       height="162.42851"
       id="rect13" /><rect
       x="-771.8429"
       y="69.235077"
       width="1367.2717"
       height="162.42851"
       id="rect14" /><rect
       x="-771.8429"
       y="69.235077"
       width="1367.2717"
       height="162.42851"
       id="rect15" /><rect
       x="-771.8429"
       y="69.235077"
       width="1367.2717"
       height="162.42851"
       id="rect16" /><rect
       x="-771.8429"
       y="69.235077"
       width="1367.2717"
       height="162.42851"
       id="rect17" /><rect
       x="-771.8429"
       y="69.235077"
       width="1367.2717"
       height="162.42851"
       id="rect18" /><rect
       x="-771.8429"
       y="69.235077"
       width="1367.2717"
       height="162.42851"
       id="rect19" /><rect
       x="-771.8429"
       y="69.235077"
       width="1367.2717"
       height="162.42851"
       id="rect20" /><rect
       x="-771.8429"
       y="69.235077"
       width="1042.3988"
       height="216.57401"
       id="rect21" /><rect
       x="-771.8429"
       y="69.235077"
       width="1367.2717"
       height="162.42851"
       id="rect25" /><rect
       x="-771.8429"
       y="69.235077"
       width="1367.2717"
       height="162.42851"
       id="rect26" /><rect
       x="-771.8429"
       y="69.235077"
       width="1367.2717"
       height="162.42851"
       id="rect27" /><rect
       x="-771.8429"
       y="69.235077"
       width="1367.2717"
       height="162.42851"
       id="rect28" /><rect
       x="-771.8429"
       y="69.235077"
       width="1367.2717"
       height="162.42851"
       id="rect29" /><rect
       x="-771.8429"
       y="69.235077"
       width="947.72205"
       height="349.51065"
       id="rect38" /><rect
       x="-771.8429"
       y="69.235077"
       width="1367.2717"
       height="162.42851"
       id="rect76" /><rect
       x="-771.8429"
       y="69.235077"
       width="1367.2717"
       height="162.42851"
       id="rect78" /><rect
       x="-771.8429"
       y="69.235077"
       width="1367.2717"
       height="162.42851"
       id="rect80" /><rect
       x="-771.8429"
       y="69.235077"
       width="1367.2717"
       height="162.42851"
       id="rect82" /><rect
       x="-771.8429"
       y="69.235077"
       width="1367.2717"
       height="162.42851"
       id="rect31" /><rect
       x="-771.8429"
       y="69.235077"
       width="1367.2717"
       height="162.42851"
       id="rect32" /><rect
       x="-771.8429"
       y="69.235077"
       width="1367.2717"
       height="162.42851"
       id="rect33" /><rect
       x="-771.8429"
       y="69.235077"
       width="1367.2717"
       height="162.42851"
       id="rect34" /><rect
       x="-771.8429"
       y="69.235077"
       width="1367.2717"
       height="162.42851"
       id="rect85" /><rect
       x="-771.8429"
       y="69.235077"
       width="1367.2717"
       height="162.42851"
       id="rect87" /><rect
       x="-771.8429"
       y="69.235077"
       width="1367.2717"
       height="162.42851"
       id="rect89" /><rect
       x="-771.8429"
       y="69.235077"
       width="1367.2717"
       height="162.42851"
       id="rect92" /><rect
       x="-771.8429"
       y="69.235077"
       width="1367.2717"
       height="162.42851"
       id="rect51" /><rect
       x="-771.8429"
       y="69.235077"
       width="1367.2717"
       height="162.42851"
       id="rect57" /><rect
       x="-771.8429"
       y="69.235077"
       width="1367.2717"
       height="162.42851"
       id="rect58" /><rect
       x="-771.8429"
       y="69.235077"
       width="1367.2717"
       height="162.42851"
       id="rect59" /></defs><g
     inkscape:label="Layer 1"
     inkscape:groupmode="layer"
     id="layer1"
     transform="translate(0.2,0.59538437)"><path
       id="rect1"
       style="fill:#0d1117;stroke:#b3b3b3;stroke-width:0.4;stroke-linecap:round;stroke-linejoin:round;paint-order:fill markers stroke"
       d="M 0,-0.39538437 H 211.66666 V 52.916669 H 0 Z" /><text
       xml:space="preserve"
       transform="matrix(0.26458333,0,0,0.26458333,-74.146084,-423.60536)"
       id="text14"
       style="font-style:normal;font-variant:normal;font-weight:normal;font-stretch:normal;font-size:146.667px;line-height:1;font-family:Outfit;-inkscape-font-specification:Outfit;text-align:center;letter-spacing:1px;word-spacing:0px;white-space:pre;shape-inside:url(#rect14);display:inline;fill:#0d1117;fill-opacity:1;stroke:none;stroke-width:1.51181;stroke-linecap:round;stroke-linejoin:round;paint-order:fill markers stroke"><tspan
         x="-553.16484"
         y="185.63676"
         id="tspan1">Code Art Tech</tspan></text><text
       xml:space="preserve"
       transform="matrix(0.26458333,0,0,0.26458333,-74.146084,-460.64705)"
       id="text15"
       style="font-style:normal;font-variant:normal;font-weight:normal;font-stretch:normal;font-size:146.667px;line-height:1;font-family:Poppins;-inkscape-font-specification:Poppins;text-align:center;letter-spacing:1px;word-spacing:0px;white-space:pre;shape-inside:url(#rect15);display:inline;fill:#0d1117;fill-opacity:1;stroke:none;stroke-width:1.51181;stroke-linecap:round;stroke-linejoin:round;paint-order:fill markers stroke"><tspan
         x="-612.01496"
         y="179.23463"
         id="tspan2">Code Art Tech</tspan></text><text
       xml:space="preserve"
       transform="matrix(0.26458333,0,0,0.26458333,-74.146084,-492.39707)"
       id="text16"
       style="font-style:normal;font-variant:normal;font-weight:normal;font-stretch:normal;font-size:146.667px;line-height:1;font-family:Prompt;-inkscape-font-specification:Prompt;text-align:center;letter-spacing:1px;word-spacing:0px;white-space:pre;shape-inside:url(#rect16);display:inline;fill:#0d1117;fill-opacity:1;stroke:none;stroke-width:1.51181;stroke-linecap:round;stroke-linejoin:round;paint-order:fill markers stroke"><tspan
         x="-612.0151"
         y="179.23463"
         id="tspan3">Code Art Tech</tspan></text><text
       xml:space="preserve"
       transform="matrix(0.26458333,0,0,0.26458333,-74.146084,-524.14709)"
       id="text17"
       style="font-style:normal;font-variant:normal;font-weight:normal;font-stretch:normal;font-size:146.667px;line-height:1;font-family:'Space Mono';-inkscape-font-specification:'Space Mono';text-align:center;letter-spacing:1px;word-spacing:0px;white-space:pre;shape-inside:url(#rect17);display:inline;fill:#0d1117;fill-opacity:1;stroke:none;stroke-width:1.51181;stroke-linecap:round;stroke-linejoin:round;paint-order:fill markers stroke"><tspan
         x="-677.64792"
         y="180.15068"
         id="tspan4">Code Art Tech</tspan></text><text
       xml:space="preserve"
       transform="matrix(0.26458333,0,0,0.26458333,-74.146084,-564.36395)"
       id="text18"
       style="font-style:normal;font-variant:normal;font-weight:normal;font-stretch:normal;font-size:146.667px;line-height:1;font-family:Ubuntu;-inkscape-font-specification:Ubuntu;text-align:center;letter-spacing:1px;word-spacing:0px;white-space:pre;shape-inside:url(#rect18);display:inline;fill:#0d1117;fill-opacity:1;stroke:none;stroke-width:1.51181;stroke-linecap:round;stroke-linejoin:round;paint-order:fill markers stroke"><tspan
         x="-560.68173"
         y="187.66684"
         id="tspan5">Code Art Tech</tspan></text><text
       xml:space="preserve"
       transform="matrix(0.26458333,0,0,0.26458333,-74.146084,-601.93481)"
       id="text19"
       style="font-style:normal;font-variant:normal;font-weight:normal;font-stretch:normal;font-size:146.667px;line-height:1;font-family:Verdana;-inkscape-font-specification:Verdana;text-align:center;letter-spacing:1px;word-spacing:0px;white-space:pre;shape-inside:url(#rect19);display:inline;fill:#0d1117;fill-opacity:1;stroke:none;stroke-width:1.51181;stroke-linecap:round;stroke-linejoin:round;paint-order:fill markers stroke"><tspan
         x="-606.7896"
         y="184.70976"
         id="tspan6">Code Art Tech</tspan></text><path
       id="text51"
       style="font-size:25.8723px;line-height:1;font-family:Geologica;-inkscape-font-specification:Geologica;text-align:center;letter-spacing:3.89919px;word-spacing:0px;white-space:pre;fill:#f9f9f9;stroke-width:0.329825;stroke-linecap:round;stroke-linejoin:round;paint-order:fill markers stroke"
       d="m 29.085043,13.264279 c -1.114778,0 -2.148605,0.194338 -3.101103,0.582393 -0.945444,0.388055 -1.77078,0.931376 -2.476334,1.629875 -0.698501,0.698499 -1.245101,1.516759 -1.64021,2.455147 -0.388055,0.938387 -0.582395,1.958062 -0.582395,3.058728 0,1.093609 0.19434,2.109487 0.582395,3.047876 0.395109,0.938387 0.941709,1.756647 1.64021,2.455147 0.705554,0.698499 1.53089,1.245617 2.476334,1.640727 0.952498,0.388055 1.986325,0.581877 3.101103,0.581877 1.107721,0 2.134473,-0.193822 3.079915,-0.581877 0.945443,-0.39511 1.770778,-0.942228 2.476334,-1.640727 0.705554,-0.6985 1.252155,-1.51676 1.64021,-2.455147 0.395111,-0.938389 0.59273,-1.954267 0.59273,-3.047876 0,-1.079499 -0.197619,-2.085022 -0.59273,-3.016353 -0.388055,-0.938388 -0.934656,-1.760445 -1.64021,-2.466 -0.705556,-0.705555 -1.530891,-1.255951 -2.476334,-1.651062 -0.945442,-0.39511 -1.972194,-0.592728 -3.079915,-0.592728 z m 87.520237,0 c -1.11478,0 -2.14809,0.194338 -3.10058,0.582393 -0.94545,0.388055 -1.7713,0.931376 -2.47686,1.629875 -0.6985,0.698499 -1.24509,1.516759 -1.64021,2.455147 -0.38805,0.938387 -0.58239,1.958062 -0.58239,3.058728 0,1.093609 0.19434,2.109487 0.58239,3.047876 0.39512,0.938387 0.94171,1.756647 1.64021,2.455147 0.70556,0.698499 1.53141,1.245617 2.47686,1.640727 0.95249,0.388055 1.9858,0.581877 3.10058,0.581877 1.10772,0 2.13447,-0.193822 3.07992,-0.581877 0.94544,-0.39511 1.77078,-0.942228 2.47633,-1.640727 0.70556,-0.6985 1.25267,-1.51676 1.64073,-2.455147 0.39511,-0.938389 0.59273,-1.954267 0.59273,-3.047876 0,-1.079499 -0.19762,-2.085022 -0.59273,-3.016353 -0.38806,-0.938388 -0.93517,-1.760445 -1.64073,-2.466 -0.70555,-0.705555 -1.53089,-1.255951 -2.47633,-1.651062 -0.94545,-0.39511 -1.9722,-0.592728 -3.07992,-0.592728 z m 30.4245,0 c -1.15711,0 -2.2258,0.183465 -3.20652,0.550354 -0.97367,0.366888 -1.82403,0.892776 -2.55075,1.577165 -0.71967,0.677332 -1.28042,1.492312 -1.68258,2.444811 -0.40217,0.945444 -0.60359,2.00378 -0.60359,3.175 0,1.178277 0.20849,2.239892 0.62477,3.185336 0.41628,0.945442 0.99826,1.756627 1.74615,2.43396 0.75494,0.670278 1.63309,1.18581 2.63498,1.545642 1.00189,0.359833 2.09233,0.539502 3.2706,0.539502 0.47978,0 1.02638,-0.04953 1.64021,-0.148312 0.62089,-0.09878 1.22082,-0.243064 1.79938,-0.433565 0.58561,-0.190499 1.07232,-0.416423 1.46037,-0.677478 v -6.921541 h -5.49269 v 1.968355 h 3.36569 v 3.577043 c -0.28222,0.141112 -0.65295,0.268484 -1.11156,0.381372 -0.45861,0.105833 -0.97363,0.158646 -1.54513,0.158646 -1.16416,0 -2.19419,-0.21505 -3.09025,-0.645438 -0.889,-0.437445 -1.58748,-1.076036 -2.09547,-1.915646 -0.50801,-0.83961 -0.76223,-1.859285 -0.76223,-3.058728 0,-0.853721 0.13065,-1.622965 0.3917,-2.307352 0.26811,-0.684388 0.6492,-1.26637 1.14309,-1.746147 0.49388,-0.486833 1.09002,-0.857044 1.78852,-1.111043 0.6985,-0.261056 1.4781,-0.391708 2.33887,-0.391708 0.66323,0 1.30509,0.08491 1.92598,0.254248 0.62795,0.169333 1.21045,0.423045 1.74667,0.761711 l 1.03714,-1.862419 c -0.47977,-0.33161 -0.98771,-0.592915 -1.52393,-0.783414 -0.52917,-0.197556 -1.06921,-0.338564 -1.61954,-0.42323 -0.55034,-0.08467 -1.09366,-0.127124 -1.62988,-0.127124 z M 40.656428,13.582089 V 28.398755 H 49.48328 V 26.218527 H 43.027345 V 13.582089 Z m 12.365654,0 v 14.816666 h 2.3704 V 13.582089 Z m 5.274098,0 5.694226,14.816666 h 2.529044 l 5.545915,-14.816666 h -2.614311 l -4.15892,11.652002 -4.328935,-11.652002 z m 16.662549,0 v 14.816666 h 9.641272 v -2.116666 h -7.270875 v -4.625041 h 6.222875 v -1.979207 h -6.222875 v -4.000273 h 7.207313 v -2.095479 z m 13.815176,0 v 14.816666 h 2.370399 v -5.979996 h 2.021581 l 4.095875,5.979996 h 2.86804 l -4.466393,-6.35 c 0.740834,-0.126999 1.393576,-0.370873 1.958021,-0.730704 0.564442,-0.366889 1.002137,-0.83237 1.312582,-1.396814 0.317499,-0.564443 0.475939,-1.213391 0.475939,-1.947168 0,-0.90311 -0.207975,-1.68271 -0.624252,-2.338876 -0.40922,-0.656165 -0.991203,-1.160825 -1.746145,-1.513602 -0.747889,-0.359833 -1.636911,-0.539502 -2.667021,-0.539502 z m 39.403275,0 v 14.816666 h 8.82634 v -2.180228 h -6.45594 V 13.582089 Z m 28.39207,0 v 9.038208 c 0,1.150054 0.22264,2.18716 0.66714,3.111438 0.45156,0.917221 1.11794,1.644007 1.99988,2.180228 0.889,0.536222 1.99359,0.804086 3.31298,0.804086 1.32644,0 2.43051,-0.267864 3.31246,-0.804086 0.889,-0.543276 1.55589,-1.273859 2.00039,-2.19108 0.45156,-0.924278 0.67696,-1.957587 0.67696,-3.100586 v -9.038208 h -2.38125 v 9.01702 c 0,1.305278 -0.32447,2.278698 -0.97358,2.920752 -0.64911,0.634998 -1.52726,0.952397 -2.63498,0.952397 -1.10772,0 -1.98639,-0.317399 -2.6355,-0.952397 -0.64911,-0.642054 -0.97358,-1.615474 -0.97358,-2.920752 v -9.01702 z m 16.58814,0 v 14.816666 h 2.37091 V 13.582089 Z m 7.08432,0 v 14.816666 h 2.31769 V 17.508464 l 7.47189,10.890291 h 2.26498 V 13.582089 h -2.30735 v 10.763167 l -7.48223,-10.763167 z m -151.156667,1.92598 c 0.994833,0 1.894212,0.225923 2.698542,0.677478 0.804333,0.451555 1.439644,1.090147 1.90531,1.915646 0.472723,0.818443 0.709001,1.781508 0.709001,2.889229 0,0.825498 -0.137726,1.576792 -0.412894,2.254126 -0.26811,0.670277 -0.64212,1.248978 -1.121896,1.735811 -0.479777,0.479776 -1.044326,0.849987 -1.693436,1.111044 -0.642055,0.253998 -1.33674,0.380855 -2.084627,0.380855 -1.001888,0 -1.905065,-0.225407 -2.709395,-0.676961 -0.797278,-0.451556 -1.432072,-1.086868 -1.904795,-1.90531 -0.472721,-0.825499 -0.709516,-1.791844 -0.709516,-2.899565 0,-0.832555 0.134449,-1.584366 0.402559,-2.254643 0.275166,-0.677332 0.652453,-1.255517 1.132231,-1.735294 0.486832,-0.479777 1.051382,-0.846709 1.693436,-1.100708 0.64911,-0.261055 1.347591,-0.391708 2.09548,-0.391708 z m 87.520237,0 c 0.99483,0 1.89473,0.225923 2.69906,0.677478 0.80433,0.451555 1.43913,1.090147 1.9048,1.915646 0.47272,0.818443 0.70899,1.781508 0.70899,2.889229 0,0.825498 -0.13772,1.576792 -0.41289,2.254126 -0.26811,0.670277 -0.6416,1.248978 -1.12138,1.735811 -0.47978,0.479776 -1.04432,0.849987 -1.69343,1.111044 -0.64206,0.253998 -1.33726,0.380855 -2.08515,0.380855 -1.00189,0 -1.90506,-0.225407 -2.70939,-0.676961 -0.79728,-0.451556 -1.43208,-1.086868 -1.9048,-1.90531 -0.47272,-0.825499 -0.709,-1.791844 -0.709,-2.899565 0,-0.832555 0.13393,-1.584366 0.40204,-2.254643 0.27517,-0.677332 0.65246,-1.255517 1.13224,-1.735294 0.48683,-0.479777 1.05138,-0.846709 1.69343,-1.100708 0.64911,-0.261055 1.34759,-0.391708 2.09548,-0.391708 z m -25.460976,0.08475 h 3.006018 c 0.959554,0 1.675466,0.218847 2.148189,0.65629 0.479777,0.437444 0.719853,1.047731 0.719853,1.830896 0,0.762 -0.268381,1.347261 -0.804603,1.756482 -0.529165,0.409222 -1.273383,0.613916 -2.232938,0.613916 h -2.836519 z m 85.865556,18.107422 -0.53071,0.984952 h 0.56999 l 0.59014,-0.984952 z m -41.37008,0.214457 c -0.11101,0 -0.20694,0.03669 -0.28784,0.110071 -0.0809,0.0715 -0.12144,0.164282 -0.12144,0.279052 0,0.116652 0.0405,0.211174 0.12144,0.282671 0.0809,0.0715 0.17683,0.10697 0.28784,0.10697 0.11101,0 0.20693,-0.03547 0.28784,-0.10697 0.0809,-0.0715 0.12144,-0.166019 0.12144,-0.282671 0,-0.11477 -0.0405,-0.207556 -0.12144,-0.279052 -0.0809,-0.07338 -0.17683,-0.110071 -0.28784,-0.110071 z m 48.78927,0 c -0.11101,0 -0.20694,0.03669 -0.28784,0.110071 -0.0809,0.0715 -0.12144,0.164282 -0.12144,0.279052 0,0.116652 0.0405,0.211174 0.12144,0.282671 0.0809,0.0715 0.17683,0.10697 0.28784,0.10697 0.11101,0 0.20693,-0.03547 0.28784,-0.10697 0.0809,-0.0715 0.12144,-0.166019 0.12144,-0.282671 0,-0.11477 -0.0405,-0.207556 -0.12144,-0.279052 -0.0809,-0.07338 -0.17683,-0.110071 -0.28784,-0.110071 z m -68.49143,0.121439 v 3.950664 h 0.63201 v -3.950664 z m 35.49861,0 v 3.950664 h 0.57826 l -0.008,-2.901632 1.26659,2.049487 h 0.46302 l 1.22111,-2.01383 -0.008,2.865975 h 0.61805 v -3.950664 h -0.601 l -1.43092,2.419491 -1.48724,-2.419491 z m 17.98237,0.341065 v 0.815971 h -0.61289 v 0.513663 h 0.61289 v 1.402499 c 0,0.325496 0.0818,0.567493 0.24546,0.725537 0.16369,0.158044 0.38192,0.236678 0.65474,0.236678 0.11101,0 0.21794,-0.01415 0.32143,-0.04237 0.10536,-0.02634 0.19866,-0.05989 0.27957,-0.101285 L 170.80973,37.4256 c -0.047,0.02446 -0.0998,0.04386 -0.15813,0.05891 -0.0583,0.01505 -0.12019,0.02274 -0.18604,0.02274 -0.13547,0 -0.241,-0.03932 -0.31626,-0.118339 -0.0734,-0.0809 -0.11007,-0.219288 -0.11007,-0.414961 v -1.267114 h 0.77618 v -0.513663 h -0.77618 v -0.815971 z m -149.039486,0.464571 -1.658296,2.872176 h 3.033407 l 1.658296,-2.872176 z m 6.350001,0 -1.658298,2.872176 h 3.033406 l 1.658299,-2.872176 z m 6.349998,0 -1.658296,2.872176 h 3.033407 l 1.658296,-2.872176 z m 6.350001,0 -1.658296,2.872176 h 3.033407 l 1.658296,-2.872176 z m 6.350001,0 -1.658298,2.872176 h 3.033406 l 1.658298,-2.872176 z m 6.349998,0 -1.658296,2.872176 h 3.033407 l 1.658296,-2.872176 z m 6.350001,0 -1.658296,2.872176 h 3.033407 l 1.658296,-2.872176 z m 6.350001,0 -1.658299,2.872176 h 3.033407 l 1.658298,-2.872176 z m 6.349998,0 -1.658296,2.872176 h 3.033407 l 1.658296,-2.872176 z m 6.350001,0 -1.658296,2.872176 h 3.033406 l 1.658296,-2.872176 z m 6.350001,0 -1.658299,2.872176 h 3.033407 l 1.658298,-2.872176 z m 6.349998,0 -1.658296,2.872176 h 3.033407 l 1.658296,-2.872176 z m 6.350001,0 -1.658296,2.872176 h 3.033406 l 1.658296,-2.872176 z m 6.349996,0 -1.65829,2.872176 h 3.0334 l 1.6583,-2.872176 z m 6.35001,0 -1.6583,2.872176 h 3.0334 l 1.6583,-2.872176 z m 56.99962,0.238228 c -0.17498,0 -0.35723,0.02446 -0.54726,0.07338 -0.19003,0.04892 -0.37279,0.132614 -0.54777,0.251147 l 0.17519,0.457337 c 0.12982,-0.09407 0.26628,-0.162915 0.40927,-0.206189 0.14299,-0.04516 0.28785,-0.0677 0.4346,-0.0677 0.15993,0 0.29325,0.02568 0.40049,0.07648 0.10725,0.0508 0.18762,0.122264 0.2403,0.214457 0.0527,0.09031 0.0786,0.19725 0.0786,0.321427 v 0.107487 c -0.29727,-0.02317 -0.56399,-0.0269 -0.78445,-0.0026 -0.25588,0.02634 -0.46573,0.07981 -0.62942,0.160714 -0.16181,0.0809 -0.28098,0.183297 -0.35812,0.307475 -0.0771,0.122296 -0.11575,0.259461 -0.11575,0.411861 0,0.180622 0.0405,0.337704 0.12144,0.471289 0.0828,0.131704 0.19741,0.234614 0.34416,0.307992 0.14676,0.0715 0.31677,0.10697 0.51056,0.10697 0.20697,0 0.39428,-0.03547 0.56173,-0.10697 0.16745,-0.0715 0.29815,-0.174407 0.39222,-0.307992 v 0.330213 h 0.55914 v -1.791622 c 0,-0.250237 -0.0501,-0.457462 -0.14986,-0.621151 -0.0997,-0.16557 -0.24265,-0.288583 -0.42892,-0.369486 -0.18438,-0.08279 -0.40646,-0.124541 -0.6661,-0.124541 z m -23.04201,0.02532 c -0.1731,0 -0.33472,0.03599 -0.48524,0.107487 -0.15052,0.06962 -0.27859,0.191925 -0.38396,0.366902 v -0.386539 h -0.62063 v 2.793628 h 0.62063 v -1.520838 c 0,-0.227659 0.0708,-0.407281 0.21188,-0.538985 0.14111,-0.133585 0.31951,-0.200505 0.53588,-0.200505 0.0583,0 0.11686,0.0045 0.17518,0.01395 0.0583,0.0094 0.11564,0.02286 0.17209,0.03979 l 0.0816,-0.640788 c -0.047,-0.01129 -0.096,-0.01968 -0.14676,-0.02532 -0.0508,-0.0056 -0.10427,-0.0088 -0.16072,-0.0088 z m 30.67306,0 c -0.17309,0 -0.33524,0.03599 -0.48575,0.107487 -0.15052,0.06962 -0.27808,0.191925 -0.38344,0.366902 v -0.386539 h -0.62115 v 2.793628 h 0.62115 v -1.520838 c 0,-0.227659 0.0702,-0.407281 0.21135,-0.538985 0.14111,-0.133585 0.32003,-0.200505 0.5364,-0.200505 0.0583,0 0.11686,0.0045 0.17519,0.01395 0.0583,0.0094 0.11564,0.02286 0.17208,0.03979 l 0.0817,-0.640788 c -0.047,-0.01129 -0.096,-0.01968 -0.14676,-0.02532 -0.0508,-0.0056 -0.10427,-0.0088 -0.16072,-0.0088 z m -54.03391,0.0031 c -0.16557,0 -0.32527,0.03477 -0.47955,0.104387 -0.15429,0.06773 -0.29004,0.179734 -0.4067,0.335897 V 35.193173 H 118.369 v 2.793628 h 0.62063 V 36.41532 c 0,-0.146755 0.0309,-0.27483 0.093,-0.383956 0.0621,-0.111007 0.147,-0.197843 0.25425,-0.259932 0.10912,-0.06209 0.23336,-0.09302 0.37259,-0.09302 0.2126,0 0.37807,0.06045 0.49661,0.180868 0.12041,0.120414 0.18035,0.28012 0.18035,0.479557 v 1.647962 h 0.62115 v -1.839681 c 0,-0.169334 -0.0412,-0.334101 -0.12403,-0.494027 -0.0809,-0.159926 -0.20513,-0.290624 -0.37258,-0.392224 -0.16746,-0.1016 -0.37923,-0.152446 -0.63511,-0.152446 z m 3.96048,0 c -0.23142,0 -0.44005,0.04438 -0.62631,0.132809 -0.18439,0.08843 -0.33116,0.207599 -0.44029,0.358118 -0.10724,0.150518 -0.16071,0.319129 -0.16071,0.505395 0,0.186266 0.0535,0.35436 0.16071,0.504879 0.0981,0.137703 0.23265,0.246542 0.39533,0.332279 -0.0323,0.01653 -0.0729,0.02715 -0.1018,0.04599 -0.0847,0.05456 -0.15037,0.11764 -0.19741,0.189136 -0.0452,0.06961 -0.0677,0.14422 -0.0677,0.223242 0,0.09219 0.0264,0.173967 0.0791,0.245463 0.0546,0.0715 0.13704,0.135276 0.24805,0.19172 -0.14864,0.0301 -0.27479,0.0764 -0.37827,0.138493 -0.1016,0.06021 -0.17832,0.132374 -0.231,0.217041 -0.0508,0.08467 -0.0765,0.174829 -0.0765,0.270784 0,0.120415 0.0309,0.229792 0.093,0.327629 0.0621,0.09784 0.15155,0.181532 0.2682,0.251147 0.11853,0.06961 0.26146,0.122382 0.42891,0.15813 0.16745,0.03763 0.35598,0.05633 0.56483,0.05633 0.2333,0 0.44577,-0.02446 0.63768,-0.07338 0.19191,-0.04892 0.35668,-0.11654 0.49403,-0.203088 0.13923,-0.08655 0.24547,-0.188942 0.31885,-0.307475 0.0752,-0.116652 0.11265,-0.244024 0.11265,-0.381372 0,-0.161808 -0.0451,-0.29513 -0.13539,-0.400493 -0.0884,-0.105363 -0.21651,-0.187137 -0.38396,-0.245463 -0.16557,-0.05833 -0.36581,-0.09694 -0.601,-0.115755 l -0.47955,-0.03669 c -0.13359,-0.01129 -0.2372,-0.03121 -0.31058,-0.05943 -0.0734,-0.0301 -0.11007,-0.07711 -0.11007,-0.141077 0,-0.04892 0.0213,-0.09016 0.0646,-0.124023 0.0452,-0.03575 0.10823,-0.06335 0.18913,-0.08217 0.0147,-0.0037 0.0374,-0.0022 0.0532,-0.0052 0.0636,0.0074 0.12474,0.01964 0.19223,0.01964 0.23331,0 0.44245,-0.04438 0.62684,-0.132809 0.18439,-0.09031 0.32994,-0.2107 0.43718,-0.361218 0.10725,-0.150518 0.16123,-0.31791 0.16123,-0.502295 0,-0.148502 -0.0448,-0.282464 -0.1142,-0.408244 l 0.58549,0.01034 0.006,-0.513663 -1.09348,0.04289 c -0.18085,-0.08397 -0.38323,-0.127641 -0.60875,-0.127641 z m 4.32532,0 c -0.21261,0 -0.40952,0.03669 -0.59014,0.110071 -0.17874,0.07338 -0.33461,0.17699 -0.46819,0.310575 -0.13359,0.133586 -0.2372,0.29137 -0.31058,0.473873 -0.0734,0.180623 -0.11007,0.37824 -0.11007,0.592729 0,0.293511 0.0631,0.551065 0.18914,0.773079 0.12794,0.222015 0.30564,0.395171 0.5333,0.519349 0.22766,0.122296 0.4922,0.183451 0.79323,0.183451 0.12982,0 0.26385,-0.01415 0.40308,-0.04237 0.13923,-0.02634 0.27307,-0.06496 0.40101,-0.115755 0.12794,-0.05268 0.23731,-0.115241 0.32763,-0.188619 l -0.2403,-0.445967 c -0.12041,0.09407 -0.25495,0.165538 -0.40359,0.214457 -0.14676,0.04704 -0.29878,0.07028 -0.45682,0.07028 -0.19567,0 -0.36621,-0.03477 -0.51108,-0.104387 -0.14299,-0.06961 -0.25307,-0.166244 -0.33021,-0.290421 -0.0772,-0.126059 -0.11384,-0.272832 -0.11007,-0.440284 h 2.22983 c 0.0339,-0.22954 0.025,-0.44253 -0.0258,-0.638203 -0.0489,-0.197556 -0.13332,-0.369492 -0.25374,-0.516248 -0.11853,-0.146755 -0.26792,-0.260677 -0.44855,-0.341581 -0.18062,-0.08279 -0.38663,-0.124024 -0.61805,-0.124024 z m 4.35012,0 c -0.16557,0 -0.32579,0.03477 -0.48007,0.104387 -0.15428,0.06773 -0.28952,0.179734 -0.40618,0.335897 v -0.355534 h -0.62115 v 2.793628 h 0.62115 v -1.571481 c 0,-0.146755 0.0309,-0.27483 0.093,-0.383956 0.0621,-0.111007 0.147,-0.197843 0.25425,-0.259932 0.10912,-0.06209 0.23336,-0.09302 0.37259,-0.09302 0.2126,0 0.37807,0.06045 0.49661,0.180868 0.12041,0.120414 0.18035,0.28012 0.18035,0.479557 v 1.647962 h 0.62115 v -1.839681 c 0,-0.169334 -0.0418,-0.334101 -0.12454,-0.494027 -0.0809,-0.159926 -0.20462,-0.290624 -0.37207,-0.392224 -0.16745,-0.1016 -0.37922,-0.152446 -0.63511,-0.152446 z m 6.39186,0 c -0.21261,0 -0.40952,0.03669 -0.59014,0.110071 -0.17874,0.07338 -0.3346,0.17699 -0.46819,0.310575 -0.13359,0.133586 -0.2372,0.29137 -0.31058,0.473873 -0.0734,0.180623 -0.11007,0.37824 -0.11007,0.592729 0,0.293511 0.0631,0.551065 0.18914,0.773079 0.12794,0.222015 0.30564,0.395171 0.5333,0.519349 0.22766,0.122296 0.4922,0.183451 0.79323,0.183451 0.12983,0 0.26437,-0.01415 0.4036,-0.04237 0.13923,-0.02634 0.27255,-0.06496 0.40049,-0.115755 0.12794,-0.05268 0.23732,-0.115241 0.32763,-0.188619 l -0.23978,-0.445967 c -0.12042,0.09407 -0.25496,0.165538 -0.40359,0.214457 -0.14676,0.04704 -0.2993,0.07028 -0.45734,0.07028 -0.19568,0 -0.36621,-0.03477 -0.51108,-0.104387 -0.14299,-0.06961 -0.25307,-0.166244 -0.33021,-0.290421 -0.0771,-0.126059 -0.11384,-0.272832 -0.11007,-0.440284 h 2.22983 c 0.0339,-0.22954 0.0255,-0.44253 -0.0253,-0.638203 -0.0489,-0.197556 -0.13383,-0.369492 -0.25425,-0.516248 -0.11853,-0.146755 -0.26793,-0.260677 -0.44855,-0.341581 -0.18062,-0.08279 -0.38663,-0.124024 -0.61805,-0.124024 z m 7.23005,0 c -0.22013,0 -0.42229,0.03932 -0.60668,0.118339 -0.18438,0.07902 -0.34531,0.18718 -0.48266,0.324528 -0.13547,0.137348 -0.241,0.295649 -0.31626,0.47439 -0.0734,0.176859 -0.11007,0.36487 -0.11007,0.564307 0,0.269051 0.065,0.516296 0.19482,0.742073 0.12983,0.223896 0.30875,0.404036 0.5364,0.539502 0.22954,0.133585 0.48972,0.199988 0.78135,0.199988 0.22202,0 0.4254,-0.03932 0.60978,-0.118339 0.18439,-0.07902 0.34409,-0.18718 0.47956,-0.324528 0.13547,-0.137348 0.2403,-0.295649 0.31368,-0.47439 0.0753,-0.17874 0.11265,-0.366751 0.11265,-0.564306 0,-0.269052 -0.065,-0.515594 -0.19482,-0.73949 -0.12982,-0.225778 -0.30944,-0.4054 -0.53898,-0.538985 -0.22766,-0.135467 -0.48714,-0.203089 -0.77877,-0.203089 z m 12.46901,0 c -0.21261,0 -0.40901,0.03669 -0.58963,0.110071 -0.17874,0.07338 -0.33512,0.17699 -0.46871,0.310575 -0.13358,0.133586 -0.23668,0.29137 -0.31005,0.473873 -0.0734,0.180623 -0.11007,0.37824 -0.11007,0.592729 0,0.293511 0.0631,0.551065 0.18913,0.773079 0.12794,0.222015 0.30564,0.395171 0.5333,0.519349 0.22766,0.122296 0.49168,0.183451 0.79272,0.183451 0.12982,0 0.26436,-0.01415 0.40359,-0.04237 0.13923,-0.02634 0.27307,-0.06496 0.40101,-0.115755 0.12794,-0.05268 0.2368,-0.115241 0.32711,-0.188619 l -0.23978,-0.445967 c -0.12041,0.09407 -0.25495,0.165538 -0.40359,0.214457 -0.14675,0.04704 -0.29929,0.07028 -0.45734,0.07028 -0.19567,0 -0.36568,-0.03477 -0.51056,-0.104387 -0.14299,-0.06961 -0.25307,-0.166244 -0.33021,-0.290421 -0.0771,-0.126059 -0.11383,-0.272832 -0.11007,-0.440284 h 2.22932 c 0.0339,-0.22954 0.0255,-0.44253 -0.0253,-0.638203 -0.0489,-0.197556 -0.13332,-0.369492 -0.25373,-0.516248 -0.11854,-0.146755 -0.26845,-0.260677 -0.44907,-0.341581 -0.18062,-0.08279 -0.38663,-0.124024 -0.61805,-0.124024 z m 4.19509,0 c -0.22389,0 -0.43182,0.03669 -0.62373,0.110071 -0.19003,0.07338 -0.3555,0.17699 -0.49661,0.310575 -0.14111,0.133586 -0.24998,0.290668 -0.32712,0.47129 -0.0771,0.17874 -0.11575,0.375139 -0.11575,0.589628 0,0.284103 0.0645,0.538331 0.1943,0.762227 0.13171,0.222015 0.31255,0.397794 0.54209,0.527617 0.22954,0.12794 0.49094,0.191719 0.78445,0.191719 0.19191,0 0.37922,-0.03163 0.56172,-0.0956 0.1825,-0.06397 0.34797,-0.152729 0.49661,-0.265617 l -0.29611,-0.471289 c -0.0828,0.08467 -0.18639,0.153507 -0.31057,0.206189 -0.12418,0.0508 -0.2561,0.07596 -0.39533,0.07596 -0.29351,0 -0.52538,-0.08248 -0.69659,-0.248047 -0.16934,-0.16557 -0.25425,-0.394117 -0.25425,-0.685746 0,-0.195674 0.0386,-0.362363 0.11575,-0.499711 0.079,-0.13923 0.1891,-0.245466 0.33021,-0.318844 0.14112,-0.07338 0.30921,-0.110071 0.50488,-0.110071 0.12606,0 0.24505,0.0187 0.35605,0.05633 0.11289,0.03763 0.21266,0.09494 0.29921,0.172082 l 0.29869,-0.473873 c -0.13547,-0.103481 -0.28364,-0.180008 -0.44545,-0.228926 -0.15993,-0.0508 -0.3343,-0.07596 -0.52245,-0.07596 z m 14.00845,0 c -0.22013,0 -0.4223,0.03932 -0.60668,0.118339 -0.18439,0.07902 -0.34531,0.18718 -0.48266,0.324528 -0.13547,0.137348 -0.24048,0.295649 -0.31574,0.47439 -0.0734,0.176859 -0.11007,0.36487 -0.11007,0.564307 0,0.269051 0.065,0.516296 0.19482,0.742073 0.12982,0.223896 0.30822,0.404036 0.53588,0.539502 0.22954,0.133585 0.49024,0.199988 0.78186,0.199988 0.22202,0 0.4254,-0.03932 0.60979,-0.118339 0.18438,-0.07902 0.34409,-0.18718 0.47955,-0.324528 0.13547,-0.137348 0.23979,-0.295649 0.31316,-0.47439 0.0753,-0.17874 0.11317,-0.366751 0.11317,-0.564306 0,-0.269052 -0.065,-0.515594 -0.19482,-0.73949 -0.12982,-0.225778 -0.30944,-0.4054 -0.53898,-0.538985 -0.22766,-0.135467 -0.48765,-0.203089 -0.77928,-0.203089 z m 4.4943,0 c -0.16557,0 -0.32528,0.03477 -0.47956,0.104387 -0.15428,0.06773 -0.29004,0.179734 -0.40669,0.335897 v -0.355534 h -0.62064 v 2.793628 h 0.62064 v -1.571481 c 0,-0.146755 0.0314,-0.27483 0.0935,-0.383956 0.0621,-0.111007 0.14649,-0.197843 0.25373,-0.259932 0.10913,-0.06209 0.23336,-0.09302 0.37259,-0.09302 0.21261,0 0.37808,0.06045 0.49661,0.180868 0.12041,0.120414 0.18087,0.28012 0.18087,0.479557 v 1.647962 h 0.62063 v -1.839681 c 0,-0.169334 -0.0412,-0.334101 -0.12402,-0.494027 -0.0809,-0.159926 -0.20514,-0.290624 -0.37259,-0.392224 -0.16745,-0.1016 -0.37922,-0.152446 -0.6351,-0.152446 z m 6.4766,0 c -0.22389,0 -0.43182,0.03669 -0.62373,0.110071 -0.19003,0.07338 -0.3555,0.17699 -0.49661,0.310575 -0.14111,0.133586 -0.25049,0.290668 -0.32763,0.47129 -0.0771,0.17874 -0.11575,0.375139 -0.11575,0.589628 0,0.284103 0.065,0.538331 0.19482,0.762227 0.1317,0.222015 0.31254,0.397794 0.54208,0.527617 0.22954,0.12794 0.49094,0.191719 0.78445,0.191719 0.19191,0 0.37922,-0.03163 0.56172,-0.0956 0.18251,-0.06397 0.34798,-0.152729 0.49661,-0.265617 l -0.2961,-0.471289 c -0.0828,0.08467 -0.1864,0.153507 -0.31058,0.206189 -0.12418,0.0508 -0.25609,0.07596 -0.39532,0.07596 -0.29351,0 -0.5259,-0.08248 -0.69712,-0.248047 -0.16933,-0.16557 -0.25373,-0.394117 -0.25373,-0.685746 0,-0.195674 0.0386,-0.362363 0.11576,-0.499711 0.079,-0.13923 0.1891,-0.245466 0.33021,-0.318844 0.14111,-0.07338 0.3092,-0.110071 0.50488,-0.110071 0.12606,0 0.24452,0.0187 0.35553,0.05633 0.11289,0.03763 0.21266,0.09494 0.29921,0.172082 l 0.2992,-0.473873 c -0.13546,-0.103481 -0.28416,-0.180008 -0.44596,-0.228926 -0.15993,-0.0508 -0.33379,-0.07596 -0.52194,-0.07596 z m 3.65611,0 c -0.22013,0 -0.42229,0.03932 -0.60668,0.118339 -0.18438,0.07902 -0.34531,0.18718 -0.48266,0.324528 -0.13546,0.137348 -0.241,0.295649 -0.31626,0.47439 -0.0734,0.176859 -0.11007,0.36487 -0.11007,0.564307 0,0.269051 0.065,0.516296 0.19482,0.742073 0.12982,0.223896 0.30823,0.404036 0.53589,0.539502 0.22954,0.133585 0.49023,0.199988 0.78186,0.199988 0.22202,0 0.4254,-0.03932 0.60978,-0.118339 0.18439,-0.07902 0.34409,-0.18718 0.47956,-0.324528 0.13547,-0.137348 0.2403,-0.295649 0.31368,-0.47439 0.0753,-0.17874 0.11265,-0.366751 0.11265,-0.564306 0,-0.269052 -0.065,-0.515594 -0.19482,-0.73949 -0.12982,-0.225778 -0.30944,-0.4054 -0.53898,-0.538985 -0.22766,-0.135467 -0.48714,-0.203089 -0.77877,-0.203089 z m -56.10407,0.08475 v 2.793628 h 0.62116 v -2.793628 z m 48.78927,0 v 2.793628 h 0.62064 v -2.793628 z m -60.28211,0.378271 c 0.1938,0 0.3521,0.04963 0.47439,0.149345 0.12418,0.09784 0.18604,0.225912 0.18604,0.383956 0,0.105363 -0.0278,0.198149 -0.0842,0.279053 -0.0564,0.07902 -0.1349,0.141396 -0.23461,0.186552 -0.0997,0.04327 -0.21364,0.0646 -0.34159,0.0646 -0.19379,0 -0.35227,-0.04841 -0.47645,-0.146244 -0.1223,-0.09972 -0.18345,-0.227793 -0.18345,-0.383956 0,-0.105363 0.0278,-0.197447 0.0842,-0.276469 0.0564,-0.0809 0.13367,-0.14398 0.23151,-0.189136 0.0997,-0.04515 0.21434,-0.0677 0.34416,-0.0677 z m 4.31085,0.02222 c 0.23707,0 0.41983,0.06045 0.54777,0.180868 0.12983,0.120414 0.19745,0.285885 0.20309,0.49661 h -1.58336 c 0.0226,-0.210725 0.10941,-0.376196 0.25993,-0.49661 0.1524,-0.120415 0.34303,-0.180868 0.57257,-0.180868 z m 10.74198,0 c 0.23707,0 0.41983,0.06045 0.54777,0.180868 0.12983,0.120414 0.19745,0.285885 0.20309,0.49661 h -1.58337 c 0.0226,-0.210725 0.10942,-0.376196 0.25994,-0.49661 0.1524,-0.120415 0.34303,-0.180868 0.57257,-0.180868 z m 19.69958,0 c 0.23706,0 0.41983,0.06045 0.54777,0.180868 0.12982,0.120414 0.19744,0.285885 0.20308,0.49661 h -1.58336 c 0.0226,-0.210725 0.1089,-0.376196 0.25941,-0.49661 0.1524,-0.120415 0.34355,-0.180868 0.5731,-0.180868 z m -12.45816,0.06511 c 0.1731,0 0.32685,0.0374 0.46044,0.112655 0.13546,0.07526 0.2417,0.183417 0.31884,0.324528 0.0771,0.13923 0.11576,0.303997 0.11576,0.494027 0,0.190029 -0.0386,0.354797 -0.11576,0.494026 -0.0771,0.13923 -0.18338,0.247388 -0.31884,0.324528 -0.13359,0.07526 -0.28734,0.112655 -0.46044,0.112655 -0.17121,0 -0.32445,-0.0374 -0.45992,-0.112655 -0.13358,-0.07714 -0.23912,-0.185298 -0.31626,-0.324528 -0.0771,-0.139229 -0.11524,-0.303997 -0.11524,-0.494026 0,-0.19003 0.0374,-0.354797 0.11266,-0.494027 0.0771,-0.141111 0.18267,-0.249269 0.31626,-0.324528 0.13546,-0.07526 0.28941,-0.112655 0.4625,-0.112655 z m 30.67306,0 c 0.1731,0 0.32634,0.0374 0.45992,0.112655 0.13547,0.07526 0.24171,0.183417 0.31885,0.324528 0.0771,0.13923 0.11575,0.303997 0.11575,0.494027 0,0.190029 -0.0386,0.354797 -0.11575,0.494026 -0.0771,0.13923 -0.18338,0.247388 -0.31885,0.324528 -0.13358,0.07526 -0.28682,0.112655 -0.45992,0.112655 -0.17121,0 -0.32445,-0.0374 -0.45992,-0.112655 -0.13358,-0.07714 -0.23911,-0.185298 -0.31626,-0.324528 -0.0771,-0.139229 -0.11575,-0.303997 -0.11575,-0.494026 0,-0.19003 0.0379,-0.354797 0.11317,-0.494027 0.0771,-0.141111 0.18216,-0.249269 0.31574,-0.324528 0.13547,-0.07526 0.28993,-0.112655 0.46302,-0.112655 z m 14.6265,0 c 0.1731,0 0.32634,0.0374 0.45992,0.112655 0.13547,0.07526 0.24222,0.183417 0.31936,0.324528 0.0771,0.13923 0.11576,0.303997 0.11576,0.494027 0,0.190029 -0.0386,0.354797 -0.11576,0.494026 -0.0771,0.13923 -0.18389,0.247388 -0.31936,0.324528 -0.13358,0.07526 -0.28682,0.112655 -0.45992,0.112655 -0.17121,0 -0.32445,-0.0374 -0.45992,-0.112655 -0.13358,-0.07714 -0.23912,-0.185298 -0.31626,-0.324528 -0.0771,-0.139229 -0.11575,-0.303997 -0.11575,-0.494026 0,-0.19003 0.0379,-0.354797 0.11317,-0.494027 0.0771,-0.141111 0.18267,-0.249269 0.31626,-0.324528 0.13546,-0.07526 0.28941,-0.112655 0.4625,-0.112655 z m -25.01863,1.041281 c 0.14255,-0.0044 0.3253,0.01425 0.51057,0.03462 v 0.208256 c 0,0.129822 -0.0336,0.242525 -0.10129,0.33848 -0.0659,0.09596 -0.15601,0.170561 -0.27078,0.223243 -0.11477,0.05268 -0.24477,0.07855 -0.38964,0.07855 -0.16934,0 -0.30318,-0.03618 -0.40101,-0.109554 -0.096,-0.07338 -0.14366,-0.17821 -0.14366,-0.313676 0,-0.08655 0.0271,-0.162558 0.0816,-0.22841 0.0564,-0.06773 0.14328,-0.121203 0.25993,-0.160714 0.11853,-0.04139 0.26985,-0.06515 0.45423,-0.0708 z m -42.81754,1.292427 0.51367,0.03979 c 0.22013,0.01505 0.38368,0.05053 0.49092,0.10697 0.10725,0.05645 0.16072,0.135595 0.16072,0.237195 0,0.133585 -0.0806,0.241743 -0.24237,0.324528 -0.15992,0.08467 -0.38008,0.127124 -0.66042,0.127124 -0.1731,0 -0.32301,-0.0187 -0.44907,-0.05633 -0.12606,-0.03575 -0.22269,-0.08659 -0.29042,-0.152446 -0.0677,-0.06585 -0.1018,-0.142378 -0.1018,-0.228926 0,-0.0715 0.0225,-0.135276 0.0677,-0.19172 0.0452,-0.05644 0.11137,-0.102745 0.19792,-0.138493 0.0884,-0.03575 0.19275,-0.05829 0.31316,-0.0677 z" /><text
       xml:space="preserve"
       transform="scale(0.26458333)"
       id="text93"
       style="font-style:normal;font-variant:normal;font-weight:normal;font-stretch:normal;font-size:21.3333px;line-height:1;font-family:Geologica;-inkscape-font-specification:Geologica;text-align:justify;letter-spacing:1px;word-spacing:0px;white-space:pre;shape-inside:url(#rect94);fill:none;fill-opacity:1;stroke:#ffffff;stroke-width:6.04724;stroke-dasharray:none;paint-order:fill markers stroke" /></g></svg>
